<?xml version="1.0" encoding="utf-8"?>
<!-- Generator: Adobe Illustrator 21.0.0, SVG Export Plug-In . SVG Version: 6.00 Build 0)  -->
<svg version="1.1" id="Layer_1" xmlns="http://www.w3.org/2000/svg" xmlns:xlink="http://www.w3.org/1999/xlink" x="0px" y="0px"
	 width="1400px" height="980px" viewBox="0 0 1400 980" enable-background="new 0 0 1400 980" xml:space="preserve">
<g>
	<rect fill="#FFFEF2" width="1400" height="980"/>
	<g>
		<path fill="#E1E0D1" d="M279.9,291.5c-1.5-5.4-3.4-10.7-5.9-15.8c9.6-18.6,39.3-75.3,39.6-75.8c0.4-0.7,0.2-1.5-0.3-2.1
			c-0.5-0.6-1.4-0.7-2.1-0.4l-81.5,34.9c-1.5-0.6-3-1.2-4.5-1.7l2.4-15.5c0.1-0.8-0.3-1.5-1-1.9c-0.7-0.4-1.6-0.2-2.1,0.3
			l-11.1,10.9v-15.3c0-0.8-0.5-1.5-1.3-1.7c-0.8-0.2-1.6,0-2,0.7l-10.4,14.6l-9.9-28.4c-0.3-0.7-1.2-1.2-1.9-1.2s-1.5,0.5-1.7,1.2
			l-9.9,28.4L165.9,208c-0.5-0.7-1.3-0.9-2-0.7c-0.8,0.2-1.3,0.9-1.3,1.7v15.3l-11.1-10.9c-0.6-0.6-1.4-0.7-2.1-0.3
			c-0.7,0.4-1.1,1.1-1,1.9l2.4,15.5c-1.5,0.5-3,1.1-4.5,1.7l-81.5-34.9c-0.7-0.3-1.5-0.1-2.1,0.4c-0.5,0.6-0.6,1.4-0.3,2.1
			c0.3,0.6,30,57.2,39.6,75.8c-2.4,5.1-4.3,10.4-5.9,15.8c-7.1,3.7-55.1,30.5-59.7,80.8c-0.2,0.9-0.9,5.3,1.4,7.3
			c0.5,0.4,1.1,0.8,2,0.9c0,1.5,0.2,3.4,1.5,4.6c0.8,0.8,2.1,1.5,4.4,1.2c0.9,0.9,2.5,2.1,4.6,2.1c0.1,0,0.2,0,0.4,0
			c2.5-0.2,4.8-2.1,6.8-5.6c6.4-6.7,24-23.1,34.7-25.1c0.7,6,1.4,9.9,1.6,10.6c1.8,9.9,4.2,19,7.2,27.2
			c-4.6,7.3-17.4,35.5-13.2,62.1c-3.9,1.1-12.8,4.5-12.5,11.5c-0.1,0.7-0.1,2.2,1.1,3.6c1.5,1.8,4.3,2.7,8.3,2.7c0,0,0.1,0,0.1,0
			c0.3,0.8,0.9,1.8,2,2.6c2.6,1.8,6.9,1.6,12.8-0.7c0.9,1.4,2.6,3.4,5.5,4.1c0.8,0.2,1.6,0.3,2.4,0.3c4.4,0,9.5-2.7,15.4-7.9
			l28.7-24.8c13.1,4.6,25.8,5.4,36.3,5.4c10.3,0,23-0.8,36.1-5.4l28.7,24.7c5.9,5.3,11.1,8,15.4,8c0.8,0,1.6-0.1,2.4-0.3
			c2.9-0.7,4.6-2.7,5.5-4.1c6,2.3,10.2,2.5,12.8,0.7c1.1-0.8,1.7-1.7,2-2.6c4,0,6.9-0.9,8.4-2.7c1.2-1.4,1.2-2.9,1.1-3.6
			c0.4-6.9-8.6-10.3-12.5-11.5c4.2-26.5-8.5-54.8-13.2-62.1c3.1-8.2,5.5-17.3,7.2-27.2c0.1-0.7,0.9-4.6,1.6-10.6
			c12.3,2.2,32.6,23,34.7,25.1c1.9,3.6,4.2,5.5,6.8,5.6c0.1,0,0.2,0,0.4,0c2.1,0,3.7-1.2,4.6-2.1c2.3,0.3,3.6-0.4,4.4-1.2
			c1.3-1.2,1.5-3.1,1.5-4.6c0.9-0.1,1.6-0.5,2-0.9c2.4-2,1.6-6.4,1.5-7.1C335,322,287,295.2,279.9,291.5z"/>
		<path fill="#E1E0D1" d="M639.2,210c-30.3,1.8-41,37.4-41,37.6c-2.6,6.3-5.4,17.9-6.9,24.8c-13.8-28.6-40.9-57.1-94-60.4
			c-77.2,4.9-99.2,63.1-105.5,97.4c-4,22-2.8,44.1,3.7,63.9c9.9,30.6,28.1,47.8,46.4,57.4c-9.4,2.5-29.1,10-32.7,30
			c-0.1,0.4-1.7,8.9,3.7,15.1c3.4,3.8,8.7,5.8,15.8,5.8c1.1,0,2.1,0,3.3-0.1c0.4,0,38.2-3.2,47.8-39.5c9.7,1.1,16.6,0.5,17.9,0.4
			c0.7,0.1,2.8,0.2,6.1,0.2c3,0,7.1-0.1,11.7-0.7c9.5,36.3,47.4,39.4,47.7,39.5c1.1,0.1,2.2,0.1,3.3,0.1c7.1,0,12.4-1.9,15.8-5.8
			c5.4-6.1,3.7-14.7,3.7-15c-3.6-20-23.3-27.5-32.7-30c18.3-9.6,36.5-26.8,46.4-57.4c5.4-16.5,7.1-34.6,5.2-52.9
			c40.8-17.7,65.3-37.1,72.8-57.7c3.8-10.6,3.1-21.2-2.2-31.6C668.3,217.4,654.2,209.1,639.2,210z"/>
		<path fill="#E1E0D1" d="M968.3,329.4c-4.7-3.6-7.1-5.4-8.5-6.2c-2.1-8.2-5.3-18.1-10-28.3c1.9-2.5,10.5-14.7,19.1-31.2
			c6.2-12,11-23.6,14.2-34.5c0.9-3,0.3-6.1-1.6-8.6c-1.9-2.4-4.8-3.8-7.9-3.7c-8.2,0.4-20.9,1.4-34.4,4.4
			c-17.6,3.8-32.2,9.7-43.6,17.6c-5.9-2.5-12.2-4.4-19.2-5.8c-0.3-0.4-0.7-0.7-1.2-0.8c-0.8-0.1-20.3-2.8-38,0c0,0-0.1,0-0.1,0
			c-8.6,1.3-16.3,3.5-23.4,6.5c-11.3-7.9-25.9-13.8-43.6-17.6c-13.5-2.9-26.2-4-34.4-4.4c-3.1-0.1-6,1.2-7.9,3.7
			c-1.9,2.5-2.5,5.6-1.6,8.5c3.2,10.9,8,22.5,14.2,34.6c8.5,16.5,17.2,28.7,19.1,31.2c-4.7,10.2-7.9,20.1-10,28.3
			c-1.4,0.8-3.8,2.5-8.5,6.2c-4.5,3.6-11.3,9.2-17.6,15.7c-14.8,15.2-19.8,27.3-14.9,35.9c0.4,0.8,2.1,4.3,7,6.1
			c2,0.8,4.3,1.1,6.8,1.1c6.3,0,14.1-2.4,23.2-7.1c1.7,10.7,4.9,20.3,9.7,28.8c1.8,5.2,26.4,73,54.4,71.6c0.2,0,0.5,0,0.8,0
			c3.9,0,17.3-2.2,26.9-30.2c9.2,0.4,15.8-0.2,17.2-0.4c1.1,0.1,5.2,0.5,11.4,0.5c1.8,0,3.7,0,5.8-0.1c9.6,28,23,30.2,26.9,30.2
			c0.4,0,0.6,0,0.8,0c0.3,0,0.6,0,0.9,0c27.7,0,51.7-66.6,53.5-71.6c4.8-8.4,8.1-18,9.7-28.8c9.2,4.7,16.9,7.1,23.2,7.1
			c2.5,0,4.8-0.4,6.8-1.1c4.8-1.8,6.6-5.2,7-6.1c5-8.6,0-20.7-14.9-35.9C979.6,338.5,972.9,332.9,968.3,329.4z"/>
		<path fill="#E1E0D1" d="M1071.9,367.5c-0.9,0.7-1.8,1.8-2.2,3.2c-0.7,2.2,0,4.6,1.9,7.2c1.8,2.3,4.4,4.2,7.5,5.3
			c8.9,3.2,30.8,12.5,44,30.6c3,8,7.1,16,12.8,23.1c1.9,2.4,3.9,4.7,6.1,6.8c-3.8,2.4-11.2,8.3-11.9,18.1
			c-0.4,5.9,2.3,11.5,6.9,15.1c0.1,0.1,0.1,0.1,0.2,0.2c1.8,1.3,3.8,2.4,6,3c3.3,0.9,6.9,1.4,10.9,1.5c0.1,0,0.1,0,0.1,0
			c0,0,0.1,0,0.1,0c0.3,0,0.7,0,1,0c0.9,0,1.9,0,2.9-0.1c0.8,0,19.9-1.4,26.4-16.8c5.4,1,11,1.6,17,1.9c0.1,0,0.2,0,0.4,0
			c0,0,0,0,0.1,0l0.1-1.8l0.2,1.8c0.2,0,0.3,0,0.4,0c6-0.3,11.6-0.9,17-1.9c6.5,15.4,25.6,16.8,26.5,16.8c1,0,1.9,0.1,2.9,0.1
			c0.3,0,0.7,0,1,0c0,0,0.1,0,0.1,0c0,0,0.1,0,0.1,0c4-0.1,7.7-0.6,10.9-1.5c2.2-0.6,4.2-1.7,6-3c0.1-0.1,0.2-0.1,0.2-0.2
			c4.6-3.6,7.3-9.2,6.9-15.1c-0.7-9.8-8.1-15.7-11.9-18.1c2.2-2.1,4.2-4.4,6.1-6.8c5.7-7.1,9.8-15,12.8-23.1
			c13.2-18.1,35.2-27.4,44-30.6c3.1-1.1,5.7-2.9,7.5-5.3c1.9-2.5,2.6-5,1.9-7.2c-0.4-1.4-1.3-2.4-2.2-3.2c4-3.3,6.3-6.9,6.8-10.7
			c0.7-5-1.9-8.7-2.5-9.6c-14.6-28.2-58.5-52.4-63.8-55.2c-9.3-19.9-21.3-32.4-32.8-40.2l25.3-59.1c0,0,8.4-19.6,4.3-35.7
			c-4.5-17.6-27-23.1-38.3-8.8c-3.6,4.5-6.8,11.2-8.7,21c-0.7,3.7-1.2,7.5-1.4,11.3l-3.1,61.1c-9-2.6-15.4-2.7-16.3-2.7
			c-1.1,0-7.5,0-16.3,2.5l-3.1-61c-0.2-3.8-0.6-7.6-1.4-11.3c-1.9-9.7-5.1-16.4-8.7-21c-11.3-14.3-33.8-8.8-38.3,8.8
			c-4.1,16.2,4.3,35.7,4.3,35.7l25.2,59c-0.2,0.1-0.4,0.2-0.5,0.4c-13.6,9.4-24.4,22.8-32.3,40.1c-6,3.3-49.2,27.2-63.6,55.1
			c-0.7,0.9-3.2,4.6-2.5,9.6C1065.6,360.6,1067.9,364.2,1071.9,367.5z"/>
		<path fill="#E1E0D1" d="M326.7,707.9c-1.9-1.7-2.6-2.7-2.9-3.2c0,0,0.1,0,0.1,0c2.2-0.5,3-1.7,3.3-2.6c0.8-2.8-2.4-6-3.4-6.9
			c-33.9-33.4-58.4-34.8-68.5-33.5c5.4-7.9,9.4-17.8,10.8-30.3c0.2-1.7,5-41.3-18.4-68.3c-13.5-15.5-33.5-23.6-59.5-24
			c0,0,0,0-0.1,0c-26,0.4-46,8.5-59.5,24c-23.4,27.1-18.6,66.7-18.4,68.3c1.4,12.5,5.3,22.5,10.8,30.4c-10.1-1.3-34.6,0.1-68.5,33.5
			c-1,0.9-4.2,4.1-3.4,6.9c0.3,1,1,2.2,3.3,2.6c0,0,0.1,0,0.1,0c-0.3,0.5-1,1.5-2.8,3.1c-1.7,1.3-4.2,4.3-3,7.4
			c1.1,3,5.4,6.5,26.1,6.5c6,0,13.5-0.3,22.7-1c0.1,1.9,0.3,3.8,0.4,5.5c2.8,26.8,12.4,34.7,17,36.9c-4,6.5-15.1,28.1-8.3,57.1
			c0,0.1,0.1,0.2,0.1,0.3c0.1,0.2,0.8,2.1-1.4,3.3c-4.1,2.5-13.4,8.7-12,13.5c1,3.5,6.4,3.7,11,3.5c0.6-0.1,1.6,0.1,1.7,0.1
			c0,0,0,0.3-0.2,0.8c-0.8,1.3-1.3,3.3-0.1,4.8c1.9,2.4,6.7,2,15.9-1.3c0.1,0,0.3-0.1,0.4-0.2c0,0,2.2-1.3,3.9-0.8
			c0.9,0.3,1.6,1,2.2,2.3c0,1.3,0.5,3.1,2.2,4.1c0.6,0.3,1.4,0.6,2.6,0.6c3.5,0,9.9-2.6,23.4-13.7c1.2-0.8,5.9-4.4,2-12.8
			c-0.4-1.9-3.3-18.7,4.4-32.7c4.8,2.1,9.6,3.5,13.9,4.3c3.9,11.1,11.2,11.8,13.2,11.8c0.1,0,0.2,0,0.3,0c1.3,0.1,9.4-0.1,13.5-11.8
			c4.3-0.8,9.1-2.1,13.8-4.3c7.7,14,4.8,30.8,4.4,32.7c-3.9,8.5,0.8,12.1,2,12.8c13.5,11.1,19.9,13.7,23.4,13.7
			c1.1,0,1.9-0.3,2.6-0.6c1.8-1,2.3-2.9,2.2-4.1c0.6-1.2,1.3-2,2.1-2.3c1.5-0.5,3.4,0.4,3.9,0.7c0.1,0.1,0.2,0.1,0.4,0.2
			c9.2,3.3,14,3.7,15.9,1.3c1.2-1.5,0.7-3.6,0-4.7c-0.3-0.5-0.3-0.8-0.3-0.8c0.3-0.2,1.1-0.3,1.9-0.2c4.5,0.2,9.8-0.1,10.9-3.5
			c1.4-4.7-7.9-11-12-13.5c-2-1.1-1.5-2.8-1.3-3.2c0-0.1,0.1-0.2,0.1-0.3c6.8-29-4.3-50.6-8.3-57.1c4.9-2.4,15.5-11.3,17.4-42.4
			c9.2,0.7,16.6,1,22.7,1c20.7,0,25-3.5,26.2-6.5C330.7,712.1,328.2,709.1,326.7,707.9z"/>
		<path fill="#E1E0D1" d="M610.1,696.3c10.3-32.6,10-63.3,9.8-69.2c13.7-10.1,10.6-26.2,7.4-35c-1.1-3.2-2.8-6-4.8-9.3
			c-3.2-5.1-4.1-12.7-4.1-12.8c-0.1-0.6-0.5-1.2-1.1-1.5c-0.6-0.3-1.3-0.2-1.9,0.2c-10.5,7.4-11.7,19.9-11,28.4
			c-0.2-0.7-0.9-1.1-1.6-1.2c-0.8-0.1-1.6,0.4-1.9,1.1c-7.7,16.8,0.4,26.3,4.1,29.5c-7.7,9.2-14.9,16.7-19.9,21.5
			c2.7-8.4,3.3-17.7-1.8-26.3c0.6-5.5,3.5-43.4-18.6-67.3c-11.7-12.7-28.4-19.1-49.7-19.1c-21.2,0-37.9,6.4-49.7,19.1
			c-22.1,24-19.1,61.8-18.6,67.3c-9.8,16.3,1.2,35.5,8.2,45.1c-9.7,5.6-53.6,33.6-66.5,90.5c-0.3,1-1.9,5.9,1,8.1
			c2,1.6,4.9,0.8,7.4-0.3c0.4,1.2,1.1,2.4,2.6,3c0.5,0.2,1.1,0.3,1.8,0.3c3.3,0,7.8-3,13.9-9.2c1.4,2.1,3.8,4.8,7.1,4.9
			c3.4,0.1,6.5-2.5,9.2-7.8c1.1-2,1.8-4.3,2.4-7.1c0.4-2.2,1.7-5.3,5-7.9l10.4-6.6c-0.4,4-0.7,7.8-0.9,11.5
			c-4,3.3-25.3,22.6-19.7,52.7c0.1,0.5,1.4,8.7,7.4,15.4c-4.5,3.8-16.9,15-15.5,24.3c0.6,3.9,3.4,7,8.4,9c0.6,0.2,8.4,3.5,18,3.5
			c7.3,0,15.7-1.9,22.7-8.5c0.5-0.4,11.4-10.8,11.6-22.1c0-2-0.3-3.9-1-5.8c2.6,1.1,5.3,2.1,8.2,2.9c0.1,0,0.1,0.1,0.2,0.1
			c0.3,0.1,0.6,0.1,0.9,0.2c7.1,1.8,15,2.6,23.8,2.3c1,0,1.6,0,1.7,0c0,0,0,0,0,0c0.1,0,0.2,0,0.5,0c1.7,0.1,3.3,0.1,4.9,0.1
			c7.1,0,13.7-0.7,19.6-2.2c0.5-0.1,1-0.2,1.5-0.4c0.1,0,0.1,0,0.2-0.1c2.9-0.8,5.6-1.8,8.2-2.9c-0.7,1.8-1,3.8-1,5.8
			c0.2,11.2,11.1,21.6,11.6,22c7,6.6,15.4,8.5,22.7,8.5c9.6,0,17.4-3.2,17.9-3.5c5-2,7.8-5.1,8.4-9c1.3-9.3-11.1-20.5-15.5-24.3
			c6-6.7,7.3-14.9,7.4-15.4c5.3-28.3-13.3-47.1-18.8-52c2.1-2.4,4.2-4.9,6.1-7.4l2.5,1.6c3.4,2.7,4.7,5.8,5.1,8
			c0.6,2.8,1.4,5.1,2.4,7.1c2.8,5.2,5.9,7.9,9.2,7.8c3.3-0.1,5.7-2.8,7.1-4.9c6.1,6.2,10.6,9.2,13.9,9.2c0.6,0,1.2-0.1,1.8-0.3
			c1.5-0.6,2.2-1.8,2.6-3c2.5,1.2,5.4,1.9,7.4,0.3c2.9-2.2,1.3-7.2,1-8C635.5,731.1,622.9,710.9,610.1,696.3z"/>
		<path fill="#E1E0D1" d="M942,665.6c-1-1.5-6.8-9.3-16.2-14.1c0.2-3.1,0.3-6.3,0.1-9.7c0-1-0.6-23.8-7.8-39.3
			c6.1-6.4,26.5-28.4,22.2-37.3c-1.4-3-5-4.1-10.5-3.5c-0.9,0-21.2,1.2-39.3,13.6c-4.3-2.5-20.7-11-41.2-10.1
			c-20.7-0.9-37.1,7.6-41.4,10.1c-18.1-12.4-38.4-13.5-39.1-13.5c-5.6-0.7-9.2,0.5-10.7,3.5c-4.3,8.9,16,30.9,22.2,37.3
			c-7.2,15.5-7.8,38.3-7.8,39.3c-0.2,3.4-0.1,6.7,0.1,9.7c-9.4,4.8-15.2,12.7-16.2,14.1c-3.4,2.9-47,41.1-37.4,87.5
			c0.1,0.3,2.3,6.8,9.1,8.9c1.3,0.4,2.7,0.6,4.1,0.6c2.9,0,6.1-0.8,9.5-2.4c-1.9,3-3.9,6.8-5.4,11.3c-3.7,11-5.2,28,8.8,47.5
			c-1.6,4.5-7.3,23.7,9.1,31.9c0,0,0,0,0,0c0,0,0,0,0,0c0.2,0.1,0.3,0.1,0.5,0.2c0,0,0,0,0.1,0c0.3,0,2.2,0.3,5.1,0.3
			c7.4,0,21.2-1.6,30.9-12.2c1-0.7,9.2-7.1,12.7-13.6c13.1,3.9,28.5,6,45.9,6.2c17.4-0.2,32.7-2.3,45.8-6.2
			c3.6,6.4,11.8,12.8,12.7,13.6c9.7,10.6,23.5,12.2,30.9,12.2c2.9,0,4.8-0.2,5.1-0.3c0,0,0,0,0.1,0c0.2,0,0.3-0.1,0.5-0.2
			c0,0,0,0,0,0c0,0,0,0,0,0c16.4-8.3,10.7-27.4,9.1-31.9c18.5-25.5,10.4-47.4,3.3-58.8c3.5,1.7,6.7,2.5,9.6,2.5
			c1.4,0,2.8-0.2,4.1-0.6c6.7-2,9-8.6,9.1-9.1C989,706.7,945.3,668.4,942,665.6z"/>
		<path fill="#E1E0D1" d="M1378.3,659.6c0.3-4.8-7.8-7.4-9.4-7.8l-19.3-5.8c10.4-1.9,17.3-6.9,20.8-10.2c2.3-2.1,3.7-4.7,4.3-7.5
			c0.6-3.4-0.5-5.3-1.5-6.4c-2.9-3-8.2-2.2-8.7-2.1c-49.6,5.2-91.5-8.5-91.9-8.6c0,0,0,0-0.1,0c-17.5-17.5-40.4-30.6-70.2-31.6
			c-29.7,1-52.7,14.1-70.1,31.6c0,0,0,0,0,0c-0.4,0.1-42.3,13.8-91.8,8.7c-0.6-0.1-5.9-0.9-8.8,2.1c-1,1.1-2.2,3-1.5,6.4
			c0.5,2.8,2,5.4,4.3,7.5c3.5,3.3,10.4,8.3,20.9,10.2l-19.4,5.8c-1.6,0.5-9.7,3.1-9.4,7.8c0.2,3.1,3.2,7,23.6,11.2
			c-3.4,1.8-7.3,4.6-8.2,8c-0.4,1.4-0.4,3.7,1.6,6c0.6,0.8,3.6,4.7,10.5,5.9c1.4,0.3,2.9,0.4,4.4,0.4c9.1,0,20.2-4.5,33.1-13.4
			c-6.2,16.3-8.8,28.1-8.9,28.5c-7.5,42.6,2.9,71.9,12.9,88.9c2.8,4.7,5.6,8.7,8.4,12.2c-26.2,28.8-26.3,36.7-23.4,40.3
			c1,1.2,2.6,2.4,6.3,2.4c4.4,0,11.7-1.7,24.2-7.1c10.1-4.3,19.7-9.5,22.7-11c14,7.4,29.5,11,42.2,12.6c7.4,4.1,16.3,6.4,26.8,6.8
			c10.4-0.4,19.2-2.6,26.6-6.7c12.8-1.7,28.3-5.2,42.3-12.6c2.9,1.6,12.6,6.7,22.7,11c12.5,5.4,19.8,7.1,24.2,7.1
			c3.7,0,5.3-1.2,6.3-2.4c2.9-3.6,2.7-11.5-23.4-40.3c2.7-3.4,5.6-7.5,8.4-12.2c10-17.1,20.3-46.4,12.9-88.9c0,0,0,0,0-0.1
			c-0.1-0.4-2.6-12.2-8.8-28.5c12.9,8.9,24,13.4,33.1,13.4c1.5,0,3-0.1,4.4-0.4c6.9-1.2,9.9-5.1,10.5-5.9c2-2.3,2-4.6,1.6-6
			c-0.9-3.4-4.8-6.2-8.3-8C1375.2,666.7,1378.2,662.7,1378.3,659.6z"/>
	</g>
	<g>
		<g>
			<g>
				<path fill="#8B7CB9" d="M248.3,247.6c0,0-14.6-16.2-32.4-21.4l2.7-17.1l-14.2,14v-19.7l-12.4,17.5l-11.1-31.7h-0.2l-11.1,31.7
					l-12.4-17.5v19.7l-14.2-14l2.7,17.1c-17.8,5.2-32.4,21.4-32.4,21.4c-39.9,36.7-24.9,114.6-24.9,114.6
					c14.5,81.9,70.2,84.5,92.3,84.5h0.2c22.1,0,77.8-2.6,92.3-84.5C273.2,362.1,288.2,284.3,248.3,247.6z"/>
				<path fill="#3C2415" d="M180.8,448.5c-14.2,0-32.4-1.4-50.2-11.8c-23-13.5-37.8-38.5-44.2-74.2c-0.6-3.2-14.8-79.2,25.4-116.2
					c0.5-0.5,14.3-15.6,31.6-21.4l-2.4-15.5c-0.1-0.8,0.3-1.5,1-1.9c0.7-0.4,1.6-0.2,2.1,0.3l11.1,10.9v-15.3c0-0.8,0.5-1.5,1.3-1.7
					c0.8-0.2,1.6,0,2,0.7l10.4,14.6l9.9-28.4c0.3-0.7,0.9-1.2,1.7-1.2c0.8,0,1.7,0.5,1.9,1.2l9.9,28.4l10.4-14.6
					c0.5-0.7,1.3-0.9,2-0.7c0.8,0.2,1.3,0.9,1.3,1.7v15.3l11.1-10.9c0.6-0.6,1.4-0.7,2.1-0.3c0.7,0.4,1.1,1.1,1,1.9l-2.4,15.5
					c16.9,5.6,30.5,20.2,31.6,21.4c40.2,37,26,113,25.4,116.2c-6.3,35.7-21.2,60.7-44.2,74.2C213.1,447.1,194.8,448.5,180.8,448.5z
					 M145.6,214.3l1.8,11.6c0.1,0.9-0.4,1.8-1.3,2c-17.1,5-31.4,20.7-31.6,20.9C75.7,284.5,90,361,90.1,361.8
					c14.7,83,71.8,83,90.5,83.1c76-0.1,87.1-62.5,90.7-83c0.2-0.8,14.4-77.3-24.3-112.9c0,0-0.1-0.1-0.1-0.1
					c-0.1-0.2-14.5-15.9-31.6-20.9c-0.9-0.3-1.4-1.1-1.3-2l1.8-11.6l-10.3,10.1c-0.5,0.5-1.3,0.7-2,0.4c-0.7-0.3-1.1-1-1.1-1.7
					v-13.9l-9.1,12.8c-0.4,0.6-1.1,0.8-1.7,0.8c-0.7-0.1-1.2-0.6-1.5-1.2l-9.5-27.1l-9.5,27.1c-0.2,0.6-0.8,1.1-1.5,1.2
					c-0.7,0.1-1.4-0.2-1.7-0.8l-9.1-12.8v13.9c0,0.7-0.4,1.4-1.1,1.7c-0.7,0.3-1.5,0.1-2-0.4L145.6,214.3z"/>
			</g>
			<g>
				<path fill="#FFFFFF" d="M180.8,358.2h-0.2c0,0-53.9-0.6-73.6-28.9c0,0,4.8,58.1,73.6,60.3h0.2c68.8-2.2,73.6-60.3,73.6-60.3
					C234.8,357.5,180.8,358.2,180.8,358.2z"/>
				<path fill="#3C2415" d="M180.6,391.5c-69.7-2.2-75.3-61.4-75.4-62c-0.1-0.8,0.4-1.6,1.2-1.9c0.8-0.3,1.6,0,2.1,0.7
					c18.9,27.1,71.6,28.1,72.1,28.1l0.2,1.8l0-1.8c0.5,0,53.2-1,72.1-28.1c0.5-0.7,1.3-1,2.1-0.7c0.8,0.3,1.3,1,1.2,1.9
					c0,0.6-5.7,59.8-75.3,62C180.9,391.5,180.6,391.5,180.6,391.5z M110,335.8c3.5,15,17.4,50.3,70.7,52c53.3-1.7,67.3-37,70.8-52
					c-8.9,9.2-22.8,16.2-40.8,20.3c-15.9,3.7-29.3,3.9-29.8,3.9c0,0,0,0,0,0h-0.2c-0.6,0-13.9-0.2-29.8-3.9
					C132.8,352,118.9,345,110,335.8z"/>
			</g>
			<g>
				<path fill="#8B7CB9" d="M113.2,247.6c0,0,11.2-12.4,25.9-19l-82.2-35.2c0,0,30.9,58.9,40.1,76.7
					C100.9,261.7,106.1,254,113.2,247.6z"/>
				<path fill="#3C2415" d="M96.9,271.9c-0.7,0-1.3-0.4-1.6-1c-9.1-17.6-39.8-76.1-40.1-76.7c-0.4-0.7-0.2-1.5,0.3-2.1
					c0.5-0.6,1.4-0.7,2.1-0.4l82.2,35.2c0.7,0.3,1.1,0.9,1.1,1.7c0,0.7-0.4,1.4-1.1,1.7c-14.2,6.4-25.2,18.4-25.3,18.5
					c0,0-0.1,0.1-0.1,0.1c-6.4,5.8-11.7,13.2-15.9,22C98.2,271.5,97.6,271.9,96.9,271.9C96.9,271.9,96.9,271.9,96.9,271.9z
					 M60.8,197.1c7,13.3,27.2,52,36,69c4.1-7.7,9.2-14.4,15-19.8c0.9-1,10.2-10.9,22.8-17.6L60.8,197.1z M113.2,247.6L113.2,247.6
					L113.2,247.6z"/>
			</g>
			<g>
				<path fill="#8B7CB9" d="M90.6,287c0,0-54.7,26.1-59.5,79.9c0,0-1.6,7.7,3.8,5.7c0,0-2,7.7,4.4,5.9c0,0,4.7,6.6,9.5-2.6
					c0,0,24.4-25.6,37.8-26C86.6,349.9,81.6,318.3,90.6,287z"/>
				<path fill="#3C2415" d="M43.2,382.6c-2.1,0-3.7-1.2-4.6-2.1c-2.3,0.3-3.6-0.4-4.4-1.2c-1.3-1.2-1.5-3.1-1.5-4.6
					c-0.9-0.1-1.6-0.5-2-0.9c-2.4-2-1.6-6.4-1.4-7.3c4.9-54,60-80.9,60.5-81.2c0.6-0.3,1.4-0.2,2,0.3c0.5,0.5,0.8,1.2,0.6,1.9
					c-8.7,30.5-4,61.7-3.9,62c0.1,0.5-0.1,1-0.4,1.5c-0.3,0.4-0.8,0.6-1.4,0.7C76.3,352,57.1,369.9,50.3,377
					c-1.9,3.6-4.2,5.5-6.8,5.6C43.4,382.6,43.3,382.6,43.2,382.6z M39.3,376.7c0.6,0,1.1,0.3,1.5,0.8c0,0,1.2,1.6,2.6,1.5
					c1.2-0.1,2.6-1.5,3.9-3.9c0.1-0.1,0.2-0.3,0.3-0.4c1-1,22.9-23.9,37.1-26.4c-0.9-7-3.2-32,3.2-57.6c-12.2,7-50.9,32.4-54.9,76.5
					c-0.3,1.7-0.2,3.6,0.2,4c0,0,0.4,0.1,1.1-0.2c0.6-0.2,1.4-0.1,1.9,0.4c0.5,0.5,0.7,1.2,0.5,1.8c-0.3,1.1-0.4,3.1,0.2,3.7
					c0.3,0.3,1,0.3,2,0C38.9,376.7,39.1,376.7,39.3,376.7z"/>
			</g>
			<g>
				<path fill="#8B7CB9" d="M95.7,389.6c0,0-18.9,31.9-13,63.4c0,0-13.3,2.9-12.7,10.2c0,0-1.2,5,9.2,4.4c0,0-0.3,7.6,14.2,1.5
					c0,0,4.4,12.5,21.3-2.6l29.6-25.5C144.2,441,110.6,431.2,95.7,389.6z"/>
				<path fill="#3C2415" d="M100.4,475.8c-0.8,0-1.6-0.1-2.4-0.3c-2.9-0.7-4.6-2.7-5.5-4.1c-6,2.3-10.2,2.5-12.8,0.7
					c-1.1-0.8-1.7-1.7-2-2.6c0,0-0.1,0-0.1,0c-4,0-6.8-0.9-8.3-2.7c-1.2-1.4-1.2-2.9-1.1-3.6c-0.4-6.9,8.6-10.3,12.5-11.5
					c-4.9-30.5,12.8-63.4,14.6-63.9c0.9-0.3,1.9,0.2,2.2,1.1c14.4,40.2,47,50.1,47.3,50.2c0.6,0.2,1.1,0.7,1.3,1.4
					c0.1,0.7-0.1,1.3-0.6,1.8l-29.6,25.5C110,473.1,104.8,475.8,100.4,475.8z M93.3,467.3c0.3,0,0.5,0.1,0.7,0.2
					c0.5,0.2,0.8,0.6,1,1.1c0,0.1,1.1,2.8,3.9,3.5c2.4,0.6,6.9-0.1,14.5-6.9l27.2-23.4c-8.5-3.4-32.2-15.5-45.2-47.6
					c-4.5,9-15.5,34.2-10.9,58.7c0.2,1-0.4,1.9-1.4,2.1c-0.1,0-11.7,2.7-11.3,8.3c0,0.2,0,0.4,0,0.6c0,0,0,0.4,0.3,0.8
					c0.4,0.5,2,1.6,6.9,1.3c0.5,0,1,0.2,1.4,0.5c0.4,0.4,0.6,0.9,0.5,1.4c0,0.1,0,0.9,0.8,1.4c0.8,0.5,3.4,1.4,10.8-1.7
					C92.9,467.3,93.1,467.3,93.3,467.3z"/>
			</g>
			<g>
				<path fill="#F15A29" d="M170.3,330.9c0,0-15.4,20-34.9,3c0,0-15.5-12.2-6.2-39.7l19.5,17.4l10.1,9L170.3,330.9z"/>
				<path fill="#3C2415" d="M151.4,342.6c-5.9,0-11.7-2.5-17.3-7.3c-0.6-0.5-16.4-13.3-6.7-41.7c0.2-0.6,0.7-1,1.3-1.2
					c0.6-0.2,1.2,0,1.7,0.4l41.1,36.7c0.7,0.6,0.8,1.7,0.2,2.5c-0.3,0.4-7.3,9.4-18.2,10.5C152.8,342.6,152.1,342.6,151.4,342.6z
					 M130,297.4c-7,23.9,5.9,34.6,6.5,35c5.5,4.8,11.1,7,16.7,6.4c7-0.7,12.3-5.5,14.5-7.8L130,297.4z"/>
			</g>
			<path fill="#3C2415" d="M158.7,320.6c-0.6,6.1-2.7,10.7-5.2,10.7c-2.9,0-5.3-6.3-5.3-14.1c0-2,0.1-3.9,0.4-5.6L158.7,320.6z"/>
			<rect x="160.3" y="356.4" fill="#3C2415" width="3.7" height="31"/>
			<rect x="137.4" y="351" fill="#3C2415" width="3.7" height="27.8"/>
			<rect x="122.7" y="344.5" fill="#3C2415" width="3.7" height="22.4"/>
			<g>
				<path fill="#8B7CB9" d="M248.3,247.6c0,0-11.2-12.4-25.9-19l82.2-35.2c0,0-30.9,58.9-40.1,76.7
					C260.6,261.7,255.3,254,248.3,247.6z"/>
				<path fill="#3C2415" d="M264.6,271.9C264.6,271.9,264.6,271.9,264.6,271.9c-0.7,0-1.3-0.4-1.6-1c-4.2-8.7-9.5-16.1-15.9-22
					c0,0-0.1-0.1-0.1-0.1c-0.1-0.1-11.1-12.2-25.3-18.5c-0.7-0.3-1.1-1-1.1-1.7c0-0.7,0.4-1.4,1.1-1.7l82.2-35.2
					c0.7-0.3,1.5-0.1,2.1,0.4c0.5,0.6,0.6,1.4,0.3,2.1c-0.3,0.6-31,59.1-40.1,76.7C265.9,271.5,265.3,271.9,264.6,271.9z
					 M249.6,246.3c5.9,5.4,10.9,12.1,15,19.8c8.8-17,29.1-55.7,36-69l-73.9,31.6C239.4,235.4,248.7,245.3,249.6,246.3z"/>
			</g>
			<g>
				<path fill="#8B7CB9" d="M270.9,287c0,0,54.7,26.1,59.5,79.9c0,0,1.6,7.7-3.8,5.7c0,0,2,7.7-4.4,5.9c0,0-4.7,6.6-9.5-2.6
					c0,0-24.4-25.6-37.8-26C274.8,349.9,279.8,318.3,270.9,287z"/>
				<path fill="#3C2415" d="M318.3,382.6c-0.1,0-0.2,0-0.4,0c-2.5-0.2-4.8-2.1-6.8-5.6c-2.1-2.2-24.4-24.9-36.4-25.3
					c-0.5,0-1-0.3-1.4-0.7c-0.3-0.4-0.5-0.9-0.4-1.5c0-0.3,4.8-31.5-3.9-62c-0.2-0.7,0-1.4,0.6-1.9c0.5-0.5,1.3-0.6,2-0.3
					c0.6,0.3,55.7,27.2,60.6,81.4c0.1,0.7,0.9,5.1-1.5,7.1c-0.5,0.4-1.1,0.8-2,0.9c0,1.5-0.2,3.4-1.5,4.6c-0.8,0.8-2.1,1.5-4.4,1.2
					C322,381.4,320.4,382.6,318.3,382.6z M276.9,348.2c14.2,2.5,36.1,25.4,37.1,26.4c0.1,0.1,0.2,0.3,0.3,0.4
					c1.3,2.4,2.7,3.8,3.9,3.9c1.4,0.1,2.6-1.5,2.6-1.5c0.4-0.6,1.2-0.9,2-0.7c1,0.3,1.7,0.3,2,0c0.6-0.6,0.5-2.5,0.2-3.7
					c-0.2-0.7,0-1.4,0.5-1.8c0.5-0.5,1.2-0.6,1.9-0.4c0.8,0.3,1.1,0.2,1.1,0.2c0.4-0.4,0.5-2.2,0.2-3.8c-4-44.3-42.7-69.7-54.9-76.7
					C280.1,316.2,277.8,341.3,276.9,348.2z"/>
			</g>
			<g>
				<path fill="#8B7CB9" d="M265.8,389.6c0,0,18.9,31.9,13,63.4c0,0,13.3,2.9,12.7,10.2c0,0,1.2,5-9.2,4.4c0,0,0.3,7.6-14.2,1.5
					c0,0-4.4,12.5-21.3-2.6L217.3,441C217.3,441,250.9,431.2,265.8,389.6z"/>
				<path fill="#3C2415" d="M261,475.8c-4.4,0-9.5-2.7-15.4-8l-29.5-25.4c-0.5-0.4-0.7-1.1-0.6-1.8c0.1-0.7,0.6-1.2,1.3-1.4
					c0.3-0.1,32.9-10.2,47.3-50.2c0.3-0.9,1.3-1.4,2.2-1.1c1.8,0.5,19.5,33.3,14.6,63.9c3.9,1.1,12.8,4.5,12.5,11.5
					c0.1,0.7,0.1,2.2-1.1,3.6c-1.5,1.8-4.4,2.7-8.4,2.7c-0.3,0.8-0.9,1.8-2,2.6c-2.6,1.8-6.9,1.6-12.8-0.7c-0.9,1.4-2.6,3.4-5.5,4.1
					C262.7,475.7,261.9,475.8,261,475.8z M220.8,441.7l27.2,23.4c7.5,6.8,12,7.5,14.5,6.9c2.8-0.7,3.9-3.4,3.9-3.5
					c0.2-0.5,0.5-0.9,1-1c0.5-0.2,1-0.2,1.4,0c7.4,3.1,10,2.2,10.8,1.7c0.8-0.5,0.8-1.4,0.8-1.5c0-0.5,0.2-1,0.6-1.3
					c0.4-0.3,0.9-0.5,1.4-0.5c5,0.3,6.5-0.8,6.9-1.3c0.4-0.4,0.3-0.8,0.3-0.9c0-0.1,0-0.4,0-0.5c0.4-4.6-8.2-7.6-11.3-8.3
					c-1-0.2-1.6-1.2-1.4-2.1c4.6-24.5-6.4-49.7-10.9-58.7C253.1,426.2,229.3,438.3,220.8,441.7z"/>
			</g>
			<g>
				<path fill="#F15A29" d="M191.2,330.9c0,0,16.8,19.1,34.9,3c0,0,15.5-12.2,6.2-39.7l-19.5,17.4l-10.1,9L191.2,330.9z"/>
				<path fill="#3C2415" d="M210.7,342.2c-0.4,0-0.9,0-1.3,0c-11.2-0.7-19.2-9.7-19.6-10c-0.7-0.8-0.6-1.9,0.2-2.6l41.1-36.7
					c0.5-0.4,1.1-0.6,1.7-0.4c0.6,0.2,1.1,0.6,1.3,1.2c9.6,28.4-6.1,41.2-6.8,41.7C222.2,339.9,216.6,342.2,210.7,342.2z M193.9,331
					c2.5,2.3,8.5,7.1,15.8,7.5c5.3,0.3,10.4-1.7,15.2-6c0.6-0.5,13.5-11.1,6.5-35.1L193.9,331z"/>
			</g>
			<path fill="#3C2415" d="M202.7,320.6c0.6,6.1,2.7,10.7,5.2,10.7c2.9,0,5.3-6.3,5.3-14.1c0-2-0.1-3.9-0.4-5.6L202.7,320.6z"/>
			<rect x="197.5" y="356.4" fill="#3C2415" width="3.7" height="31"/>
			<rect x="220.4" y="351" fill="#3C2415" width="3.7" height="27.8"/>
			<rect x="235.1" y="344.5" fill="#3C2415" width="3.7" height="22.4"/>
		</g>
		<g>
			<g>
				<path fill="#496EAC" d="M594.1,304c-6.6-36-29-91.2-103.9-95.9c-74.9,4.7-97.3,59.9-103.9,95.9c-3.9,21-3,42.7,3.6,63
					c24.7,76.2,100.2,67.8,100.2,67.8s75.6,8.4,100.2-67.8C597,346.8,597.9,325,594.1,304z"/>
				<path fill="#3C2415" d="M496.3,436.9c-3.3,0-5.5-0.2-6.1-0.2c-4.4,0.4-77.8,5.8-102-69c-6.4-19.9-7.7-42-3.7-63.9
					c6.3-34.3,28.4-92.5,105.5-97.4c77.4,4.9,99.5,63.1,105.8,97.4l0,0c4,22,2.8,44.1-3.7,63.9C571.5,431.3,515.3,436.9,496.3,436.9
					z M490.1,210c-74.4,4.7-95.8,61.2-101.9,94.4c-3.9,21.4-2.7,42.9,3.6,62.2c23.9,73.8,97.6,66.6,98.3,66.5c0.1,0,0.3,0,0.4,0
					c0.7,0.1,74.4,7.3,98.3-66.5c6.3-19.3,7.5-40.8,3.6-62.2l0,0C586.1,271.1,564.8,214.7,490.1,210z"/>
			</g>
			<g>
				<path fill="#496EAC" d="M439.9,425.8c0,0-31.7,4.3-36.2,29.6c0,0-4.2,20.4,20.8,18.5c0,0,37.8-2.7,46.5-39.5
					C471,434.3,450,431.2,439.9,425.8z"/>
				<path fill="#3C2415" d="M421.3,475.8c-7.1,0-12.4-1.9-15.8-5.8c-5.4-6.1-3.7-14.7-3.7-15.1c4.7-26.3,37.4-31,37.7-31
					c0.4-0.1,0.8,0,1.1,0.2c9.7,5.2,30.3,8.4,30.5,8.4c0.5,0.1,1,0.4,1.2,0.8c0.3,0.4,0.4,0.9,0.3,1.4
					c-8.9,37.7-47.8,40.9-48.1,40.9C423.5,475.8,422.4,475.8,421.3,475.8z M439.5,427.7c-4.2,0.7-30.2,6.1-34.1,28
					c0,0.1-1.4,7.2,2.8,12c3.1,3.5,8.5,5,16,4.4c1.5-0.1,35.3-3,44.4-36.2C463.3,434.9,448.2,432.1,439.5,427.7z"/>
			</g>
			<g>
				<path fill="#FFFFFF" d="M443.7,246.8c0,0-32.6,10.6-32.5,45.3c0,0,0.4,12.8,11,17c0,0,17,9.4,30.8-22.5c1.2-2.9,2.2-5.9,2.9-9
					C458.1,266.8,461.8,241.4,443.7,246.8z"/>
				<path fill="#3C2415" d="M428.2,312.2c-4.1,0-6.7-1.4-6.9-1.5c-11.4-4.4-11.9-18-11.9-18.6c-0.1-35.7,33.4-47,33.8-47.1
					c0,0,0,0,0,0c5.1-1.5,9.1-0.9,11.9,1.7c6.3,5.9,4.8,20.2,2.5,31.3c-0.7,3.2-1.7,6.3-3,9.3c-5.6,13.1-12.6,21.2-20.6,23.9
					C431.9,312,429.9,312.2,428.2,312.2z M444.3,248.5c-1.6,0.5-31.3,10.8-31.2,43.6c0,0.1,0.5,11.6,9.8,15.3
					c0.4,0.2,4.4,2.3,10.1,0.3c6.9-2.4,13.2-10,18.3-21.9c1.2-2.8,2.1-5.7,2.8-8.6c3-13.9,2.5-24.3-1.4-27.8
					C450.8,247.7,448,247.4,444.3,248.5z"/>
			</g>
			<path fill="#3C2415" d="M424.1,269.5c-3.2,7.3-6,17.4-1.4,23.8c0,0,11.1,12.3,23.2-4.3c1.4-1.9,2.6-4.1,3.5-6.3
				c2-4.8,5-13.8,3.8-21.8c-0.8-5.5-6.5-8.9-11.8-7.4c-0.1,0-0.2,0.1-0.3,0.1C433.4,256,427.4,262,424.1,269.5z"/>
			<ellipse transform="matrix(0.5 -0.866 0.866 0.5 -10.6751 515.6042)" fill="#FFFFFF" cx="441.2" cy="267" rx="9" ry="6.7"/>
			<g>
				<ellipse fill="#FFFFFF" cx="490.2" cy="370" rx="72.9" ry="59.6"/>
				<path fill="#3C2415" d="M490.2,431.4c-41.2,0-74.7-27.5-74.7-61.4c0-33.9,33.5-61.4,74.7-61.4c41.2,0,74.7,27.5,74.7,61.4
					C564.9,403.8,531.4,431.4,490.2,431.4z M490.2,312.2c-39.2,0-71.1,25.9-71.1,57.7c0,31.8,31.9,57.7,71.1,57.7
					c39.2,0,71.1-25.9,71.1-57.7C561.3,338.1,529.4,312.2,490.2,312.2z"/>
			</g>
			<g>
				<path fill="#496EAC" d="M540.5,425.8c0,0,31.7,4.3,36.2,29.6c0,0,4.2,20.4-20.8,18.5c0,0-37.8-2.7-46.5-39.5
					C509.4,434.3,530.4,431.2,540.5,425.8z"/>
				<path fill="#3C2415" d="M559.1,475.8c-1.1,0-2.1,0-3.3-0.1c-0.4,0-39.3-3.3-48.1-40.9c-0.1-0.5,0-1,0.3-1.4
					c0.3-0.4,0.7-0.7,1.2-0.8c0.2,0,20.8-3.2,30.5-8.4c0.3-0.2,0.7-0.3,1.1-0.2c0.3,0,33,4.8,37.7,31.1c0.1,0.3,1.7,8.9-3.7,15
					C571.5,473.9,566.2,475.8,559.1,475.8z M511.7,435.8c9,33.2,42.9,36.1,44.4,36.2c7.6,0.6,12.9-0.9,16-4.4
					c4.2-4.8,2.8-11.8,2.8-11.9c-3.9-22-29.9-27.3-34.1-28.1C532.2,432.1,517.1,434.9,511.7,435.8z"/>
			</g>
			<g>
				<path fill="#FFFFFF" d="M536.7,246.8c0,0,32.6,10.6,32.5,45.3c0,0-0.4,12.8-11,17c0,0-17,9.4-30.8-22.5c-1.2-2.9-2.2-5.9-2.9-9
					C522.3,266.8,518.6,241.4,536.7,246.8z"/>
				<path fill="#3C2415" d="M552.2,312.3c-1.7,0-3.7-0.3-5.9-1c-8-2.7-14.9-10.8-20.6-23.9c-1.3-3-2.3-6.1-3-9.3
					c-2.4-11-3.9-25.4,2.5-31.3c2.9-2.6,6.9-3.2,11.9-1.7c0,0,0,0,0,0c0.3,0.1,33.8,11.4,33.8,47.1c0,0.6-0.5,14.2-12.1,18.7
					C558.9,310.9,556.3,312.3,552.2,312.3z M532.1,247.9c-1.8,0-3.2,0.5-4.4,1.6c-3.8,3.6-4.4,14-1.4,27.8c0.6,3,1.6,5.9,2.8,8.6
					c5.1,11.9,11.5,19.5,18.3,21.9c5.6,2,9.7-0.1,9.9-0.2c9.6-3.8,10-15.3,10-15.4c0.1-32.7-30.3-43.2-31.2-43.5
					C534.6,248.1,533.3,247.9,532.1,247.9z"/>
			</g>
			<path fill="#3C2415" d="M556.2,269.5c3.2,7.3,6,17.4,1.4,23.8c0,0-11.1,12.3-23.2-4.3c-1.4-1.9-2.6-4.1-3.5-6.3
				c-2-4.8-5-13.8-3.8-21.8c0.8-5.5,6.5-8.9,11.8-7.4c0.1,0,0.2,0.1,0.3,0.1C546.9,256,553,262,556.2,269.5z"/>
			<ellipse transform="matrix(0.866 -0.5 0.5 0.866 -61.2851 305.3751)" fill="#FFFFFF" cx="539.2" cy="267" rx="6.7" ry="9"/>
			<g>
				<path fill="#EBB9D3" d="M522,301.6c-11.4-10.7-31.8-9.1-31.8-9.1s-20.5-1.7-31.8,9.1c-8.8,8.3-5.6,22.7,6.1,26.7
					c5.7,1.9,13.8,3.4,25.7,3.4c11.9,0,20.1-1.4,25.7-3.4C527.7,324.2,530.8,309.9,522,301.6z"/>
				<path fill="#3C2415" d="M490.2,333.4c-10.8,0-19.6-1.2-26.3-3.5c-6.1-2.1-10.6-7-11.9-13.2c-1.3-6,0.6-12.2,5.2-16.6
					c11.4-10.8,31-9.7,33.1-9.6c2.1-0.2,21.7-1.2,33.1,9.6c4.6,4.3,6.5,10.5,5.2,16.6c-1.3,6.1-5.8,11.1-11.9,13.2
					C509.8,332.2,500.9,333.4,490.2,333.4z M487.2,294.2c-5.9,0-19.4,0.9-27.6,8.7c-3.6,3.4-5.2,8.4-4.1,13.1
					c1.1,4.9,4.6,8.8,9.6,10.5c6.3,2.2,14.8,3.3,25.2,3.3s18.8-1.1,25.2-3.3c4.9-1.7,8.5-5.6,9.6-10.5c1-4.8-0.5-9.7-4.1-13.1
					c-10.6-10.1-30.2-8.6-30.4-8.6c-0.1,0-0.2,0-0.3,0C490,294.3,488.9,294.2,487.2,294.2z"/>
			</g>
			<g>
				<path fill="#CC81A9" d="M490.6,305.5c-0.1,0-0.3,0-0.4,0c-0.1,0-0.3,0-0.4,0c-14.1,0-25.5,3.6-25.5,8c0,4.4,11.4,8,25.5,8
					c0.1,0,0.3,0,0.4,0c0.1,0,0.3,0,0.4,0c14.1,0,25.5-3.6,25.5-8C516.1,309.1,504.7,305.5,490.6,305.5z"/>
				<path fill="#3C2415" d="M490.6,323.4l-0.4,0l-0.4,0c-13.6,0-27.3-3.4-27.3-9.9c0-6.5,13.8-9.9,27.3-9.9l0.4,0l0.4,0
					c13.6,0,27.3,3.4,27.3,9.9C517.9,320.1,504.2,323.4,490.6,323.4z M490.2,319.8l0.4,0c15.3,0,23.7-4.1,23.7-6.2
					c0-2.1-8.4-6.2-23.7-6.2v-1.8l-0.2,1.8l-0.4,0c0,0,0,0,0,0c-15.5,0-23.8,4.1-23.8,6.2c0,2.1,8.4,6.2,23.7,6.2L490.2,319.8z"/>
			</g>
			<g>
				<path fill="#7692C3" d="M584.7,272.5c0,0,4.1-20.8,7.9-29.8c0,0,10-34.7,39.4-36.5c14.3-0.9,27.8,7.3,34.4,20.1
					c9.7,19.1,9.9,52.7-70.9,87.4C595.5,313.6,591.5,286,584.7,272.5z"/>
				<path fill="#3C2415" d="M595.5,315.4c-0.3,0-0.6-0.1-0.9-0.2c-0.5-0.3-0.8-0.8-0.9-1.3c0-0.3-4-27.4-10.6-40.6
					c-0.2-0.4-0.2-0.8-0.2-1.2c0.2-0.9,4.2-21,8-30.2c0-0.2,10.7-35.8,41-37.6c15-0.9,29.1,7.4,36.1,21.1c5.3,10.4,6,21,2.2,31.6
					c-7.5,20.8-32.4,40.4-74,58.2C596,315.4,595.7,315.4,595.5,315.4z M586.6,272.2c5.6,11.6,9.2,31.8,10.3,38.7
					c39.3-17.2,62.8-35.7,69.8-55.2c3.5-9.6,2.8-19.3-2-28.7c-6.3-12.4-19.2-19.9-32.6-19.1c-27.7,1.7-37.7,34.8-37.8,35.2
					C591,251.3,587.3,268.7,586.6,272.2z"/>
			</g>
			<path fill="#3C2415" d="M591,293c-0.7,0-1.3-0.4-1.6-1c-0.5-0.9-0.1-2,0.8-2.5c0.4-0.2,37.4-19.5,41.4-59.6c0.1-1,1-1.8,2-1.6
				c1,0.1,1.7,1,1.6,2c-4.2,42.1-43,62.2-43.4,62.4C591.6,292.9,591.3,293,591,293z"/>
			<path fill="#A7A9AC" d="M481.1,420.5c-0.2,0-0.4,0-0.6-0.1c-29.2-7.2-39.1-27.5-38.7-42.6c0.3-12.4,7.2-23.9,19-31.7
				c15.3-10.1,35.3-12.1,52.3-5.3c18,7.2,28.4,24,24.8,39.9c-3,13.1-14.4,23.5-29.8,27.2c-16.1,3.8-32.1-0.9-41.6-12.4
				c-6.7-8.2-8.5-18.8-4.5-27.7c3.5-7.9,11.1-13.7,20.9-15.9c10.7-2.4,21.6,0,29.2,6.4c4.8,4.1,7.3,10,6.9,16.1
				c-0.6,8.1-5.1,14.5-12.3,17.5c-7.7,3.2-17.1,1.9-23.2-3.3c-3.3-2.8-5.2-6.9-5.2-11.2c0-4.1,1.8-7.9,4.9-10.5
				c5.6-4.7,15.1-4.9,20.4-0.5c1.1,0.9,2,2.1,2.6,3.5c1.6,3.6,1.1,7.6-1.5,10.7c-2.7,3.3-7.2,4.8-11.4,3.8c-3.3-0.8-5.7-3-6.4-5.8
				c-0.6-2.6,0.3-5.1,2.4-6.9c2.8-2.3,7-2.3,9.8,0c1,0.9,1.1,2.4,0.3,3.4c-0.9,1-2.4,1.2-3.4,0.3c-0.9-0.8-2.6-0.8-3.5,0
				c-0.7,0.6-1,1.3-0.8,2.1c0.2,1,1.3,1.8,2.8,2.1c2.4,0.6,4.9-0.3,6.5-2.2c0.7-0.8,2-2.9,0.8-5.6c-0.3-0.7-0.8-1.4-1.3-1.8
				c-3.4-2.9-10.3-2.6-14.1,0.5c-2,1.7-3.2,4.1-3.2,6.8c0,2.9,1.3,5.6,3.5,7.5c4.8,4.1,12.1,5.1,18.2,2.5c3.2-1.3,8.7-4.9,9.3-13.3
				c0.3-4.6-1.6-9-5.2-12c-6.4-5.5-15.8-7.5-24.9-5.4c-8.2,1.9-14.7,6.8-17.6,13.2c-3.2,7.2-1.7,15.8,3.8,22.6
				c9.9,12,25.5,13.5,36.7,10.8c13.6-3.2,23.6-12.2,26.2-23.5c3.1-13.5-6.1-27.9-21.8-34.2c-15.5-6.2-33.8-4.4-47.8,4.8
				c-10.5,6.9-16.6,17-16.8,27.8c-0.3,13.3,8.7,31.2,35,37.8c1.3,0.3,2.1,1.6,1.8,3C483.2,419.7,482.2,420.5,481.1,420.5z"/>
		</g>
		<g>
			<g>
				<g>
					<path fill="#F8AFB6" d="M808.4,236.9c0,0-33.8,6.1-54.2,51.8c0,0-9.7-12.8-19.3-31.5c-5.2-10.1-10.4-21.9-14.1-34.2
						c-1.5-5,2.4-10.1,7.7-9.9c8.3,0.4,20.7,1.4,34.1,4.3C778.2,220.8,795.2,226.7,808.4,236.9z"/>
					<path fill="#3C2415" d="M754.2,290.5c-0.6,0-1.1-0.3-1.5-0.7c-0.1-0.1-9.9-13.1-19.5-31.7c-6.2-12-11-23.7-14.2-34.6
						c-0.9-3-0.3-6.1,1.6-8.5c1.9-2.4,4.8-3.7,7.9-3.7c8.2,0.4,20.9,1.4,34.4,4.4c19.2,4.1,34.9,10.8,46.6,19.8
						c0.6,0.4,0.8,1.2,0.7,1.9c-0.2,0.7-0.7,1.2-1.5,1.4c-0.3,0.1-33.1,6.5-52.9,50.7c-0.3,0.6-0.8,1-1.5,1.1
						C754.3,290.5,754.3,290.5,754.2,290.5z M728.2,214.9c-1.8,0-3.5,0.8-4.6,2.2c-1.2,1.5-1.5,3.4-1,5.3
						c3.2,10.7,7.8,22.1,13.9,33.9c7,13.6,14.1,24.1,17.3,28.7c16.7-35.2,41-46,50.4-48.9c-10.9-7.6-25-13.2-42-16.9
						c-13.3-2.9-25.7-3.9-33.8-4.3C728.3,214.9,728.2,214.9,728.2,214.9z"/>
				</g>
			</g>
			<g>
				<g>
					<path fill="#F8AFB6" d="M886.5,236.9c0,0,33.8,6.1,54.2,51.8c0,0,9.7-12.8,19.3-31.5c5.2-10.1,10.4-21.9,14.1-34.2
						c1.5-5-2.4-10.1-7.7-9.9c-8.3,0.4-20.7,1.4-34.1,4.3C916.7,220.8,899.7,226.7,886.5,236.9z"/>
					<path fill="#3C2415" d="M940.7,290.5c-0.1,0-0.1,0-0.2,0c-0.6-0.1-1.2-0.5-1.5-1.1c-10.3-23.1-24.1-35.7-33.9-42.1
						c-10.6-7-18.9-8.6-18.9-8.6c-0.7-0.1-1.3-0.7-1.5-1.4c-0.2-0.7,0.1-1.4,0.7-1.9c11.7-9,27.4-15.7,46.6-19.8
						c13.5-2.9,26.2-4,34.4-4.4c3.1-0.1,6,1.2,7.9,3.7c1.9,2.5,2.5,5.6,1.6,8.6c-3.2,10.9-8,22.5-14.2,34.5
						c-9.6,18.6-19.4,31.6-19.5,31.7C941.8,290.2,941.2,290.5,940.7,290.5z M890.6,236.1c9.4,3,33.7,13.8,50.4,48.9
						c3.2-4.6,10.3-15.1,17.3-28.7c6.1-11.8,10.8-23.2,13.9-33.9c0.6-1.8,0.2-3.8-1-5.3c-1.2-1.5-3-2.3-4.8-2.2
						c-8.1,0.4-20.5,1.4-33.8,4.3C915.6,222.9,901.5,228.6,890.6,236.1z"/>
				</g>
			</g>
			<g>
				<path fill="#F8AFB6" d="M954.7,338.7c0,0-9.8-111.4-107.2-111.4c-97.5,0-107.2,111.4-107.2,111.4
					c-14.8,118.1,107.2,104.7,107.2,104.7S969.4,456.8,954.7,338.7z"/>
				<path fill="#3C2415" d="M858.8,445.7c-6.1,0-10.3-0.4-11.4-0.5c-4.3,0.4-57,5.1-88.3-26.6c-18.1-18.4-25.1-45.4-20.8-80.2
					c0.1-1.1,11-113,109.1-113c97.4,0,108.8,110.4,109.1,113c4.3,34.8-2.7,61.8-20.8,80.2C912.3,442.4,877,445.7,858.8,445.7z
					 M847.4,441.6c0.1,0,0.1,0,0.2,0c0.5,0.1,54.9,5.6,85.5-25.5c17.3-17.6,24-43.5,19.8-77.2c0,0,0,0,0-0.1
					c-0.1-1.1-10.8-109.7-105.4-109.7c-94.7,0-105.3,108.6-105.4,109.7c-4.2,33.7,2.4,59.7,19.7,77.2c30.6,31.1,84.9,25.6,85.5,25.5
					C847.3,441.6,847.4,441.6,847.4,441.6z"/>
			</g>
			<g>
				<path fill="#F8AFB6" d="M743.8,318.9c0.2-0.8-52.2,36.1-40.7,55.6c0,0,5.6,15.1,36.8-1.9C739.9,372.6,735.9,350.5,743.8,318.9z"
					/>
				<path fill="#3C2415" d="M715.2,382.5c-2.5,0-4.8-0.4-6.8-1.1c-4.8-1.8-6.6-5.2-7-6.1c-5-8.6,0-20.7,14.9-35.9
					c6.3-6.5,13.1-12.1,17.6-15.7c9.3-7.3,9.7-7,10.8-6.4c0.7,0.4,1.1,1.2,0.9,2.1l0,0c-7.6,30.8-3.9,52.7-3.9,52.9
					c0.1,0.8-0.2,1.5-0.9,1.9C730.6,379.7,722,382.5,715.2,382.5z M740.9,323c-9.1,6.6-32.6,25.5-37,40.7c-1.1,3.9-0.9,7.1,0.7,9.8
					c0.1,0.1,0.1,0.2,0.1,0.3c0,0.1,1.1,2.8,5,4.1c4.4,1.6,12.8,1.7,28.1-6.5C737.2,366.6,735.4,348.3,740.9,323z"/>
			</g>
			<g>
				<path fill="#F8AFB6" d="M749.8,403.3c0,0,25.3,72.3,52.8,70.6c0,0,15.7,2.4,26.4-30.3C829,443.7,772.5,444.1,749.8,403.3z"/>
				<path fill="#3C2415" d="M803.4,475.8c-0.4,0-0.6,0-0.8,0c-28.4,1.4-53.4-68.8-54.5-71.8c-0.3-0.9,0.1-1.9,1-2.3
					c0.9-0.4,1.9-0.1,2.3,0.8c21.7,39,75.8,39.4,77.5,39.4c0,0,0,0,0.1,0c0.6,0,1.1,0.3,1.5,0.8c0.3,0.5,0.4,1.1,0.3,1.6
					C821.1,473.6,807.3,475.8,803.4,475.8z M802.6,472.1c0.1,0,0.2,0,0.3,0c0.1,0,13.6,1.5,23.6-26.7c-10-0.5-46.9-3.9-69.5-29
					c2.7,6.4,6.3,14.2,10.6,22c12.4,22.7,24.5,34.3,35,33.7C802.5,472.1,802.6,472.1,802.6,472.1z"/>
			</g>
			<path fill="#3C2415" d="M762.6,217.4c-4.9,18.4-17.5,31.7-27.7,39.8c-5.2-10.1-10.4-21.9-14.1-34.2c-1.5-5,2.4-10.1,7.7-9.9
				C736.8,213.5,749.2,214.5,762.6,217.4z"/>
			<ellipse fill="#EF4136" cx="799.1" cy="337.2" rx="12" ry="5"/>
			<ellipse fill="#3C2415" cx="819.3" cy="318" rx="6.4" ry="10.2"/>
			<path fill="#3C2415" d="M835.9,341c-3.6,0-6.2-2.5-7.2-4.7c-0.4-0.9,0-2,0.9-2.4c0.9-0.4,2,0,2.4,0.9c0.3,0.7,2.2,3.9,6.2,2.1
				c0,0,4.6-2.6,8.7-4.2c0.9-0.4,2,0.1,2.4,1c0.4,0.9-0.1,2-1,2.4c-3.8,1.5-8.3,4-8.3,4.1C838.4,340.8,837.1,341,835.9,341z"/>
			<g>
				<path fill="#F8AFB6" d="M951.1,318.9c-0.2-0.8,52.2,36.1,40.7,55.6c0,0-5.6,15.1-36.8-1.9C955,372.6,958.9,350.5,951.1,318.9z"
					/>
				<path fill="#3C2415" d="M979.7,382.5c-6.8,0-15.4-2.8-25.6-8.4c-0.7-0.4-1.1-1.2-0.9-1.9c0-0.2,3.8-22.1-3.9-52.9l0,0
					c-0.2-0.8,0.2-1.6,0.9-2.1c1-0.6,1.5-0.8,10.8,6.4c4.5,3.6,11.3,9.2,17.6,15.7c14.8,15.2,19.8,27.3,14.9,35.9
					c-0.4,0.8-2.1,4.3-7,6.1C984.5,382.1,982.2,382.5,979.7,382.5z M957,371.6c15.3,8.1,23.7,8,28.1,6.5c3.9-1.4,5-4.1,5-4.2
					c0-0.1,0.1-0.2,0.1-0.3c1.6-2.7,1.8-5.9,0.7-9.8c-4.4-15.2-27.9-34.1-37-40.7C959.5,348.3,957.7,366.6,957,371.6z"/>
			</g>
			<g>
				<path fill="#F8AFB6" d="M945.1,403.3c0,0-25.3,72.3-52.8,70.6c0,0-15.7,2.4-26.4-30.3C865.9,443.7,922.3,444.1,945.1,403.3z"/>
				<path fill="#3C2415" d="M891.5,475.8c-3.9,0-17.7-2.2-27.4-31.6c-0.2-0.6-0.1-1.2,0.3-1.6c0.3-0.5,0.8-0.8,1.5-0.8c0,0,0,0,0,0
					c1.6,0,55.8-0.4,77.5-39.4c0.5-0.8,1.5-1.2,2.3-0.8c0.9,0.4,1.3,1.4,1,2.3c-1,3-25.5,71.9-53.6,71.9c-0.3,0-0.6,0-0.9,0
					C892.1,475.8,891.9,475.8,891.5,475.8z M868.4,445.4c10.1,28.5,23.4,26.7,23.6,26.7c0.1,0,0.3,0,0.4,0c10.5,0.7,22.6-11,35-33.7
					c4.2-7.8,7.8-15.6,10.5-21.9C915.3,441.5,878.4,445,868.4,445.4z"/>
			</g>
			<path fill="#3C2415" d="M932.3,217.4c4.9,18.4,17.5,31.7,27.7,39.8c5.2-10.1,10.4-21.9,14.1-34.2c1.5-5-2.4-10.1-7.7-9.9
				C958.1,213.5,945.7,214.5,932.3,217.4z"/>
			<ellipse fill="#EF4136" cx="895.7" cy="337.2" rx="12" ry="5"/>
			<ellipse fill="#3C2415" cx="875.6" cy="318" rx="6.4" ry="10.2"/>
			<path fill="#3C2415" d="M859,341.1c-1.1,0-2.4-0.3-3.7-0.9c-0.2-0.1-4.7-2.6-8.5-4.1c-0.9-0.4-1.4-1.4-1-2.4
				c0.4-0.9,1.4-1.4,2.4-1c4.1,1.6,8.6,4.2,8.8,4.3c4,1.8,5.8-1.8,6-2.2c0.4-0.9,1.5-1.3,2.4-0.9c0.9,0.4,1.3,1.5,0.9,2.4
				C865.2,338.5,862.6,341.1,859,341.1z"/>
			<g>
				<path fill="#F8AFB6" d="M830.3,228.5c0,0-33.9,12.5-21.9,51.8c0,0,9.1,21.1,31.6,22.9c11.3,0.9,22.6-3.2,29.6-12.1
					c4.3-5.4,7.7-13.2,6.9-24.3c-0.4-5.5-2.6-10.8-6.6-14.7c-3.3-3.2-8.3-5.8-15.3-4.8c0,0-7,0.7-11.1,6.7c0,0-0.7-18.3,24.2-25.6
					C867.7,228.5,847.9,225.7,830.3,228.5z"/>
				<path fill="#3C2415" d="M843.1,305.2c-1.1,0-2.2,0-3.3-0.1c-23.3-1.9-32.8-23.1-33.1-24c-12.4-40.6,22.6-54.1,22.9-54.2
					c0.1,0,0.2-0.1,0.3-0.1c17.7-2.8,37.1-0.1,38,0c0.9,0.1,1.5,0.8,1.6,1.7c0.1,0.9-0.5,1.6-1.3,1.9c-15.1,4.4-20.2,13-22,18.5
					c3.9-2.8,8-3.2,8.2-3.2c6.3-0.9,12.1,0.9,16.7,5.3c4.1,4,6.7,9.6,7.1,15.8c0.7,9.9-1.7,18.5-7.2,25.5
					C864.6,300.5,854.3,305.2,843.1,305.2z M830.8,230.3c-2.7,1.1-31.6,13.4-20.6,49.5c0,0,8.9,19.9,30,21.6
					c11.2,0.9,21.6-3.4,28-11.4c5-6.3,7.1-14,6.5-23c-0.4-5.4-2.5-10.1-6-13.5c-3.8-3.6-8.4-5.1-13.7-4.3c-0.1,0-6.3,0.7-9.8,5.9
					c-0.4,0.7-1.3,1-2,0.7c-0.8-0.2-1.3-0.9-1.3-1.7c0-0.2-0.3-15.9,18-24.6C852.5,229,841.2,228.7,830.8,230.3z"/>
			</g>
		</g>
		<g>
			<g>
				<path fill="#CB9783" d="M1277.9,336.1C1263.8,235.8,1199.1,235,1195,235c-4.2-0.1-68.8,0.7-82.9,101.1
					c0,0-22.6,118.7,82.7,122.9v0c0.1,0,0.1,0,0.2,0c0.1,0,0.1,0,0.2,0v0C1300.5,454.8,1277.9,336.1,1277.9,336.1z"/>
				<path fill="#3C2415" d="M1194.8,460.9c-0.1,0-0.2,0-0.4,0c-29-1.2-51.2-11.2-65.9-29.7c-15.2-19.2-19.4-44.1-20.2-61.6
					c-0.9-18.9,1.8-33.1,1.9-33.7c6-42.3,21.4-72.4,46-89.4c19-13.1,36.8-13.3,38.8-13.2c2.8,0,70.3,0.2,84.7,102.6
					c0.2,1.1,2.7,15.1,1.9,33.7c-0.8,17.5-5,42.5-20.2,61.6c-14.7,18.5-36.8,28.5-65.9,29.7c-0.1,0-0.3,0-0.4,0l-0.2-1.8
					L1194.8,460.9C1194.8,460.9,1194.8,460.9,1194.8,460.9z M1195.2,459L1195.2,459L1195.2,459z M1194.8,236.8
					c-4.6,0-67.2,1.8-81,99.5c-0.1,0.7-10.5,57.2,17.6,92.5c14,17.7,35.4,27.2,63.4,28.3c0,0,0.1,0,0.1,0c0,0,0.1,0,0.1,0
					c28.1-1.1,49.4-10.7,63.4-28.3c28-35.3,17.7-91.8,17.6-92.4c0,0,0-0.1,0-0.1c-5.8-41.4-20.8-70.6-44.4-86.9
					c-18-12.4-34.8-12.6-36.7-12.6C1195,236.8,1194.9,236.8,1194.8,236.8z"/>
			</g>
			<g>
				<path fill="#CB9783" d="M1125.4,287.7c0,0-48.6,25.6-63.5,54.8c0,0-8.2,9.7,6,19.5c0,0-7.2,2.5-2.1,9.1c1.7,2.2,4,3.7,6.6,4.7
					c8.2,2.9,31.3,12.5,45,31.3C1117.3,407.1,1096.2,360.9,1125.4,287.7z"/>
				<path fill="#3C2415" d="M1117.3,408.9c-0.6,0-1.1-0.3-1.5-0.8c-13.2-18.1-35.2-27.5-44.1-30.7c-3.1-1.1-5.7-2.9-7.5-5.3
					c-1.9-2.5-2.6-5-1.9-7.2c0.4-1.4,1.3-2.4,2.2-3.2c-4-3.3-6.3-6.9-6.8-10.7c-0.7-5,1.9-8.7,2.5-9.6
					c15.2-29.3,62.2-54.4,64.2-55.4c0.7-0.4,1.5-0.3,2.1,0.3c0.6,0.5,0.8,1.3,0.5,2c-14.9,37.4-16.3,67.4-14.9,86.1
					c1.6,20.2,6.7,31.7,6.8,31.8c0.4,0.9,0.1,1.9-0.7,2.3C1117.9,408.8,1117.6,408.9,1117.3,408.9z M1121.8,291.8
					c-12.2,7-46.4,28.3-58.4,51.5c-0.1,0.1-0.1,0.2-0.2,0.3c0,0-2.4,3-1.9,7c0.5,3.5,3,6.8,7.5,9.8c0.6,0.4,0.9,1.1,0.8,1.8
					c-0.1,0.7-0.6,1.3-1.2,1.5c-0.6,0.2-2.2,1.1-2.6,2.4c-0.4,1.3,0.5,2.8,1.3,3.9c1.4,1.8,3.4,3.2,5.8,4
					c7.9,2.8,25.9,10.4,39.6,24.5c-1.5-5.5-3.1-13.5-3.9-23.6C1107.1,356.7,1108.4,327.7,1121.8,291.8z"/>
			</g>
			<path fill="#3C2415" d="M1157.5,247.7l-26-60.7c0,0-8.4-19.6-4.3-35.7c4.5-17.6,27-23.1,38.3-8.8c3.6,4.5,6.8,11.2,8.7,21
				c0.7,3.7,1.2,7.5,1.4,11.3l3.2,62.8C1178.8,237.6,1165.4,241.6,1157.5,247.7z"/>
			<g>
				<path fill="#E5B7BD" d="M1162.7,244.3l-19.4-50c0,0-10.7-24.7,4.2-32.6c0,0,17.4-7.6,21.4,25.6l5.5,51.7
					C1174.4,239.1,1168,240.9,1162.7,244.3z"/>
				<path fill="#3C2415" d="M1162.7,246.2c-0.2,0-0.4,0-0.6-0.1c-0.5-0.2-0.9-0.6-1.1-1.1l-19.4-50c-0.4-1-11.1-26.3,5.1-34.9
					c0.4-0.2,6-2.5,11.9,0.9c6.4,3.7,10.5,12.5,12.1,26.1l5.5,51.8c0.1,0.9-0.5,1.7-1.3,2c-0.1,0-6.2,1.8-11.2,5
					C1163.4,246.1,1163.1,246.2,1162.7,246.2z M1151.7,162.9c-2,0-3.4,0.6-3.4,0.6c-13.1,6.9-3.4,30-3.3,30.2l18.7,48
					c3.4-1.9,6.9-3.2,8.8-3.8l-5.4-50.2c-1.5-12.2-5-20.3-10.3-23.3C1154.9,163.2,1153.2,162.9,1151.7,162.9z"/>
			</g>
			<circle fill="#3C2415" cx="1173.6" cy="261.5" r="6.3"/>
			<path fill="#3C2415" d="M1072.3,364.4c-2.8,0-4.9-0.6-5.1-0.7c-1-0.3-1.5-1.3-1.2-2.3c0.3-1,1.3-1.5,2.3-1.2
				c0.1,0,5.9,1.7,9.9-1.2c2.5-1.9,3.9-5.3,3.9-10.2c0-1,0.8-1.8,1.8-1.8c0,0,0,0,0,0c1,0,1.8,0.8,1.8,1.9
				c-0.1,6.1-1.9,10.6-5.5,13.1C1077.8,363.9,1074.8,364.4,1072.3,364.4z"/>
			<path fill="#3C2415" d="M1072.8,377.6c-0.4,0-0.6,0-0.7,0c-1-0.1-1.7-1-1.6-2c0.1-1,1-1.7,2-1.6c0,0,3,0.2,5-1.7
				c1.6-1.5,2.3-4,2.2-7.5c0-1,0.7-1.9,1.7-1.9c1,0,1.9,0.7,1.9,1.7c0.2,4.6-0.9,8-3.3,10.3C1077.4,377.3,1074.2,377.6,1072.8,377.6
				z"/>
			<g>
				<path fill="#CB9783" d="M1137.7,438.3c0,0-12.3,5.8-13.1,17.9c-0.5,7.5,4.6,14.3,11.8,16.3c3.6,1,8.4,1.7,14.5,1.4
					c0,0,19.8-1.2,25.4-17C1176.3,456.9,1153.1,452.6,1137.7,438.3z"/>
				<path fill="#3C2415" d="M1148.1,475.8c-4.5,0-8.6-0.5-12.2-1.5c-8.2-2.3-13.7-10-13.2-18.2c0.9-13,13.6-19.2,14.2-19.4
					c0.7-0.3,1.5-0.2,2,0.3c14.9,13.8,37.4,18.1,37.7,18.2c0.5,0.1,1,0.4,1.3,0.9c0.3,0.5,0.3,1,0.1,1.5
					c-5.9,16.8-26.1,18.2-27,18.3C1150,475.8,1149.1,475.8,1148.1,475.8z M1137.4,440.5c-2.8,1.7-10.4,6.9-11,15.8
					c-0.5,6.5,4,12.6,10.5,14.5c4,1.1,8.7,1.6,13.9,1.3c0.2,0,17-1.2,22.9-13.9C1167.7,456.8,1150.4,452,1137.4,440.5z"/>
			</g>
			<path fill="#3C2415" d="M1130.9,471.6c-0.8,0-1.6-0.5-1.8-1.4c-0.1-0.5-3.3-13.1,8.7-22.9c0.8-0.6,1.9-0.5,2.6,0.3
				c0.6,0.8,0.5,1.9-0.3,2.6c-10.2,8.3-7.5,19-7.5,19.1c0.3,1-0.3,2-1.3,2.2C1131.2,471.6,1131,471.6,1130.9,471.6z"/>
			<path fill="#3C2415" d="M1147,475.8c-0.8,0-1.6-0.6-1.8-1.4c-0.1-0.5-2.8-12.5,5.1-20.4c0.7-0.7,1.9-0.7,2.6,0s0.7,1.9,0,2.6
				c-6.5,6.5-4.2,16.9-4.1,17c0.2,1-0.4,2-1.4,2.2C1147.2,475.8,1147.1,475.8,1147,475.8z"/>
			<path fill="#3C2415" d="M1182.4,286.9c-0.1,0-0.2,0-0.3,0c-1-0.2-1.7-1.1-1.5-2.1c0.1-0.4,1.6-9,14.5-10.2c1-0.1,1.9,0.6,2,1.6
				c0.1,1-0.6,1.9-1.6,2c-9.9,1-11.2,6.9-11.2,7.2C1184,286.3,1183.2,286.9,1182.4,286.9z"/>
			<g>
				<path fill="#CB9783" d="M1264.6,287.7c0,0,48.6,25.6,63.5,54.8c0,0,8.2,9.7-6,19.5c0,0,7.2,2.5,2.1,9.1c-1.7,2.2-4,3.7-6.6,4.7
					c-8.2,2.9-31.3,12.5-45,31.3C1272.7,407.1,1293.8,360.9,1264.6,287.7z"/>
				<path fill="#3C2415" d="M1272.7,408.9c-0.3,0-0.6-0.1-0.9-0.3c-0.8-0.5-1.1-1.5-0.7-2.3c0.2-0.5,20.4-46.4-8.1-117.9
					c-0.3-0.7-0.1-1.5,0.5-2c0.6-0.5,1.4-0.6,2.1-0.3c2,1.1,49.1,26.1,64.2,55.4c0.7,0.9,3.2,4.6,2.5,9.6c-0.5,3.9-2.8,7.5-6.8,10.7
					c0.9,0.7,1.8,1.8,2.2,3.2c0.7,2.2,0,4.6-1.9,7.2c-1.8,2.3-4.4,4.2-7.5,5.3c-8.9,3.2-30.9,12.5-44.1,30.7
					C1273.8,408.6,1273.2,408.9,1272.7,408.9z M1268.1,291.8c13.5,35.9,14.7,64.9,13.3,83.2c-0.8,10.1-2.4,18-3.9,23.6
					c13.7-14.1,31.7-21.7,39.6-24.5c2.4-0.9,4.4-2.3,5.8-4c0.8-1.1,1.7-2.6,1.3-3.9c-0.4-1.3-2-2.1-2.6-2.4
					c-0.6-0.2-1.1-0.8-1.2-1.5c-0.1-0.7,0.2-1.4,0.8-1.7c4.5-3.1,7-6.4,7.5-9.8c0.6-4-1.8-6.9-1.9-7c-0.1-0.1-0.2-0.2-0.2-0.3
					C1314.6,320.1,1280.3,298.9,1268.1,291.8z"/>
			</g>
			<path fill="#3C2415" d="M1232.5,247.7l26-60.7c0,0,8.4-19.6,4.3-35.7c-4.5-17.6-27-23.1-38.3-8.8c-3.6,4.5-6.8,11.2-8.7,21
				c-0.7,3.7-1.2,7.5-1.4,11.3l-3.2,62.8C1211.2,237.6,1224.6,241.6,1232.5,247.7z"/>
			<g>
				<path fill="#E5B7BD" d="M1227.2,244.3l19.4-50c0,0,10.7-24.7-4.2-32.6c0,0-17.4-7.6-21.4,25.6l-5.5,51.7
					C1215.5,239.1,1222,240.9,1227.2,244.3z"/>
				<path fill="#3C2415" d="M1227.2,246.2c-0.4,0-0.7-0.1-1-0.3c-5-3.2-11.1-5-11.2-5c-0.9-0.2-1.4-1.1-1.3-2l5.5-51.7
					c1.6-13.7,5.7-22.4,12.1-26.1c5.9-3.4,11.6-1,11.8-0.9c16.3,8.6,5.6,33.9,5.2,35l-19.4,49.9c-0.2,0.5-0.6,0.9-1.1,1.1
					C1227.6,246.1,1227.4,246.2,1227.2,246.2z M1217.5,237.8c1.9,0.6,5.4,1.9,8.8,3.8l18.6-47.9c0.1-0.3,9.9-23.3-3.4-30.3
					c0,0-4.1-1.7-8.4,0.8c-5.3,3.1-8.8,11.1-10.2,23.3L1217.5,237.8z"/>
			</g>
			<circle fill="#3C2415" cx="1216.4" cy="261.5" r="6.3"/>
			<path fill="#3C2415" d="M1317.6,364.4c-2.5,0-5.5-0.5-8.1-2.4c-3.5-2.6-5.4-7-5.5-13.1c0-1,0.8-1.8,1.8-1.9c1,0,1.8,0.8,1.9,1.8
				c0.1,4.9,1.4,8.4,4,10.2c4,2.9,9.8,1.2,9.9,1.2c1-0.3,2,0.3,2.3,1.2c0.3,1-0.2,2-1.2,2.3C1322.5,363.8,1320.4,364.4,1317.6,364.4
				z"/>
			<path fill="#3C2415" d="M1317.1,377.6c-1.4,0-4.6-0.3-7.2-2.7c-2.4-2.3-3.5-5.8-3.3-10.3c0-1,0.9-1.8,1.9-1.7
				c1,0,1.8,0.9,1.7,1.9c-0.2,3.4,0.6,6,2.2,7.5c2,2,5,1.7,5,1.7c1-0.1,1.9,0.7,2,1.7c0.1,1-0.6,1.9-1.6,2
				C1317.8,377.6,1317.5,377.6,1317.1,377.6z"/>
			<g>
				<path fill="#CB9783" d="M1252.3,438.3c0,0,12.3,5.8,13.1,17.9c0.5,7.5-4.6,14.3-11.8,16.3c-3.6,1-8.4,1.7-14.5,1.4
					c0,0-19.8-1.2-25.4-17C1213.7,456.9,1236.8,452.6,1252.3,438.3z"/>
				<path fill="#3C2415" d="M1241.8,475.8c-0.9,0-1.9,0-2.9-0.1c-0.9-0.1-21.2-1.5-27-18.3c-0.2-0.5-0.1-1.1,0.1-1.5
					c0.3-0.5,0.7-0.8,1.3-0.9c0.2,0,22.8-4.3,37.7-18.2c0.5-0.5,1.4-0.6,2-0.3c0.5,0.3,13.3,6.4,14.2,19.4c0.6,8.2-5,15.9-13.2,18.2
					C1250.4,475.3,1246.3,475.8,1241.8,475.8z M1216.2,458.2c5.9,12.7,22.8,13.9,23,13.9c5.2,0.2,9.9-0.2,13.9-1.3
					c6.5-1.9,11-7.9,10.5-14.5c-0.6-8.9-8.2-14.1-11-15.8C1239.6,452,1222.3,456.8,1216.2,458.2z"/>
			</g>
			<path fill="#3C2415" d="M1259.1,471.6c-0.2,0-0.3,0-0.5-0.1c-1-0.3-1.6-1.3-1.3-2.2c0.1-0.5,2.6-10.9-7.5-19.1
				c-0.8-0.6-0.9-1.8-0.3-2.6c0.6-0.8,1.8-0.9,2.6-0.3c12,9.8,8.8,22.3,8.7,22.9C1260.6,471.1,1259.9,471.6,1259.1,471.6z"/>
			<path fill="#3C2415" d="M1243,475.8c-0.1,0-0.3,0-0.4,0c-1-0.2-1.6-1.2-1.4-2.2c0-0.1,2.3-10.6-4.1-17c-0.7-0.7-0.7-1.9,0-2.6
				s1.9-0.7,2.6,0c7.9,7.9,5.2,19.9,5.1,20.4C1244.6,475.2,1243.8,475.8,1243,475.8z"/>
			<path fill="#3C2415" d="M1207.6,287c-0.9,0-1.6-0.6-1.8-1.5c-0.1-0.3-1.3-6.2-11.2-7.2c-1-0.1-1.7-1-1.6-2c0.1-1,1-1.8,2-1.6
				c12.9,1.2,14.4,9.9,14.5,10.2c0.2,1-0.5,1.9-1.5,2.1C1207.8,286.9,1207.7,287,1207.6,287z"/>
			<g>
				<ellipse fill="#FFEBA8" cx="1194.8" cy="381.9" rx="64.3" ry="69.3"/>
				<path fill="#3C2415" d="M1194.8,453c-36.5,0-66.1-31.9-66.1-71.1s29.7-71.1,66.1-71.1s66.1,31.9,66.1,71.1
					S1231.2,453,1194.8,453z M1194.8,314.4c-34.4,0-62.5,30.3-62.5,67.5s28,67.5,62.5,67.5s62.5-30.3,62.5-67.5
					S1229.2,314.4,1194.8,314.4z"/>
			</g>
			<g>
				<ellipse fill="#CB9783" cx="1194.8" cy="390.7" rx="34.1" ry="45.7"/>
				<path fill="#3C2415" d="M1194.8,438.2c-19.8,0-36-21.3-36-47.5c0-26.2,16.1-47.5,36-47.5c19.8,0,36,21.3,36,47.5
					C1230.7,416.9,1214.6,438.2,1194.8,438.2z M1194.8,346.9c-17.8,0-32.3,19.7-32.3,43.8s14.5,43.8,32.3,43.8
					c17.8,0,32.3-19.7,32.3-43.8S1212.6,346.9,1194.8,346.9z"/>
			</g>
		</g>
		<g>
			<g>
				<path fill="#FABE5D" d="M261.4,708.6c-9.8-6.1-22.5-19.9-17.8-49.7c0,0-17.4,25.9-62.9,25.7c-45.5,0.2-62.9-25.7-62.9-25.7
					c4.6,29.8-8,43.6-17.8,49.7c-5.6,3.5-10.3,4.4-10.3,4.4c2,40.8,18.5,43.5,18.5,43.5c22.3,4.7,44.4,27.5,44.4,27.5
					c13.3,6.5,28.1,6.1,28.1,6.1s14.8,0.5,28.1-6.1c0,0,22.1-22.8,44.4-27.5c0,0,16.5-2.7,18.5-43.5
					C271.7,713,267,712.1,261.4,708.6z"/>
				<path fill="#3C2415" d="M181.5,791.9c-0.4,0-0.7,0-0.8,0c-0.5,0-15.3,0.4-28.8-6.3c-0.2-0.1-0.4-0.2-0.5-0.4
					c-0.2-0.2-22-22.5-43.4-27c-0.7-0.1-17.9-3.4-20-45.2c0-0.9,0.6-1.7,1.5-1.9c0,0,4.5-1,9.7-4.2c10.2-6.3,21.3-19.7,17-47.9
					c-0.1-0.8,0.3-1.7,1.1-2c0.8-0.3,1.7,0,2.2,0.7c0,0.1,4.4,6.3,14,12.5c8.9,5.7,24.2,12.4,46.9,12.4c0.3,0,0.6,0,0.8,0
					c22.7,0,38-6.7,46.9-12.4c9.7-6.2,14-12.5,14-12.5c0.5-0.7,1.4-1,2.2-0.7c0.8,0.3,1.3,1.1,1.1,2c-4.3,28.2,6.8,41.6,17,47.9
					c5.2,3.2,9.6,4.2,9.7,4.2c0.9,0.2,1.5,1,1.5,1.9c-2.1,41.8-19.3,45.1-20,45.2c-21.4,4.5-43.1,26.7-43.3,27
					c-0.1,0.2-0.3,0.3-0.5,0.4C197.7,791.5,184.8,791.9,181.5,791.9z M180.7,788.2c0.2,0,14.4,0.4,27.1-5.7
					c2.5-2.6,23.5-23.2,45.1-27.8c0.2,0,14.8-3.3,17-40.3c-1.9-0.6-5.4-1.8-9.3-4.3c0,0,0,0,0,0c-8.5-5.3-21.7-18-19.4-45.5
					c-7.5,7.7-25.9,21.7-59.9,21.7c-0.3,0-0.6,0-0.9,0c-33.9,0-52.4-14.1-59.9-21.7c2.3,27.5-10.9,40.2-19.4,45.5
					c-3.9,2.4-7.4,3.7-9.3,4.3c2.2,37,16.8,40.3,16.9,40.3c21.6,4.6,42.6,25.2,45.1,27.8C166.3,788.6,180.5,788.2,180.7,788.2z"/>
			</g>
			<g>
				<path fill="#79CFDF" d="M180.7,535.1c-87.6,1.3-76.1,90.3-76.1,90.3c6.7,61.3,76.1,59.1,76.1,59.1s69.4,2.2,76.1-59.1
					C256.9,625.4,268.3,536.5,180.7,535.1z"/>
				<path fill="#3C2415" d="M181.3,686.4c-0.4,0-0.6,0-0.7,0c-0.6,0-71.1,1.5-77.9-60.8c-0.2-1.6-5-41.2,18.4-68.3
					c13.5-15.5,33.5-23.6,59.5-24c0,0,0,0,0.1,0c26,0.4,46,8.5,59.5,24c23.4,27.1,18.6,66.7,18.4,68.3
					C252.2,684.7,188.5,686.4,181.3,686.4z M180.7,682.7c0.3,0,17.4,0.4,35-6.5c23.4-9.2,36.6-26.4,39.3-51
					c0.1-0.4,4.8-39.7-17.6-65.5c-12.7-14.7-31.8-22.3-56.7-22.7c-24.9,0.4-44,8-56.7,22.7c-22.4,25.8-17.6,65.1-17.6,65.5
					C112.9,684.2,180,682.8,180.7,682.7z"/>
			</g>
			<g>
				<path fill="#CB9783" d="M108.3,756.5c0,0-16.5-2.7-18.5-43.5c0,0,4.7-1,10.3-4.4C98.2,739.4,108.3,756.5,108.3,756.5z"/>
				<path fill="#3C2415" d="M108.3,758.3c-0.1,0-0.2,0-0.3,0c-0.7-0.1-18-3.4-20-45.2c0-0.9,0.6-1.7,1.5-1.9c0,0,4.4-1,9.7-4.2
					c0.6-0.4,1.3-0.4,1.9,0c0.6,0.4,0.9,1,0.9,1.7c-1.8,29.8,7.9,46.7,8,46.9c0.4,0.6,0.3,1.4-0.1,2
					C109.5,758,108.9,758.3,108.3,758.3z M91.7,714.4c1.4,23.9,8,33.7,12.5,37.7c-2.8-7-6.8-20.7-6.2-40.3
					C95.4,713.2,93.1,714,91.7,714.4z"/>
			</g>
			<g>
				<path fill="#79CFDF" d="M117.9,658.9c0,0-27.8-11.2-71.6,31.9c0,0-5.9,5.4-1,6.4c0,0,5.1,0.2-1.9,6.4c0,0-19.1,14.7,46.4,9.4
					C89.8,713,124.7,706.9,117.9,658.9z"/>
				<path fill="#3C2415" d="M65.4,716c-20.7,0-25-3.5-26.1-6.5c-1.2-3.1,1.3-6.1,3-7.4c1.8-1.6,2.5-2.6,2.8-3.1c0,0-0.1,0-0.1,0
					c-2.2-0.5-3-1.7-3.3-2.6c-0.8-2.8,2.4-6,3.4-6.9c44.1-43.4,72.3-32.8,73.5-32.3c0.6,0.2,1,0.8,1.1,1.4
					c6.9,49.2-29.2,56.2-29.6,56.2C80,715.6,71.9,716,65.4,716z M45.6,695.4c1.2,0.1,2.6,0.7,3.2,2.2c0.7,2-0.6,4.2-4.1,7.4
					c-0.8,0.7-2.3,2.2-1.9,3.2c0.4,1.1,4.7,6.4,47,3c1.2-0.2,32.3-6.4,26.6-50.9c-5.2-1.3-30.9-5.3-68.6,31.8
					c-1.1,1.1-2.2,2.5-2.4,3.2C45.3,695.3,45.4,695.3,45.6,695.4z"/>
			</g>
			<g>
				<path fill="#79CFDF" d="M108.3,756.5c0,0-17.2,23.9-9.3,57.6c0,0,1.5,3.5-2.1,5.6c0,0-23.8,14.5-2.1,13.6c0,0,5.4-0.5,3.2,3.7
					c0,0-4.7,7.4,13.6,0.8c0,0,6.2-4,8.9,2.7c0,0-1.5,11.9,25.3-10.1c0,0,5.2-2.5,1.3-10.8c0,0-4.3-19.8,5.4-35.7
					C152.6,784,131.5,761.8,108.3,756.5z"/>
				<path fill="#3C2415" d="M123.6,845.6c-1.1,0-1.9-0.3-2.6-0.6c-1.8-1-2.3-2.9-2.2-4.1c-0.6-1.2-1.3-2-2.2-2.3
					c-1.8-0.6-3.9,0.7-3.9,0.8c-0.1,0.1-0.2,0.1-0.4,0.2c-9.2,3.3-14,3.7-15.9,1.3c-1.2-1.5-0.7-3.6,0.1-4.8
					c0.3-0.5,0.2-0.8,0.2-0.8c-0.2-0.1-1.1-0.2-1.7-0.1c-4.6,0.2-9.9-0.1-11-3.5c-1.4-4.7,7.9-11,12-13.5c2.2-1.2,1.5-3.1,1.4-3.3
					c0-0.1-0.1-0.2-0.1-0.3c-8-34.1,8.8-58.1,9.6-59.1c0.4-0.6,1.2-0.9,1.9-0.7c23.5,5.4,44.4,27.1,45.3,28c0.6,0.6,0.7,1.5,0.2,2.2
					c-8.7,14.2-5.6,32.1-5.2,34.1c3.9,8.5-0.8,12.1-2,12.8C133.4,843,127,845.6,123.6,845.6z M122.4,840.8c0,0-0.1,0.8,0.4,1
					c0.4,0.2,4.4,1.6,21.9-12.8c0.1-0.1,0.2-0.2,0.4-0.2c0.3-0.2,3.4-2.1,0.5-8.4c-0.1-0.1-0.1-0.3-0.1-0.4
					c-0.2-0.8-4.1-19.7,4.9-35.8c-4.3-4.2-22-20.8-41.2-25.7c-3,4.8-15,26.4-8.3,55c0.7,1.8,0.9,5.6-2.9,7.7
					c-6.1,3.7-10.6,8-10.3,9.3l0,0c0,0,0.9,1.2,7.2,0.9c0.5-0.1,3.7-0.2,5,1.8c0.6,0.8,1,2.3-0.2,4.5c-0.2,0.4-0.3,0.7-0.3,0.9
					c0,0,0.2,0.1,0.9,0.1c1.3,0,4.3-0.3,10.6-2.6c0.8-0.5,3.8-2,6.8-1c2.1,0.7,3.6,2.2,4.6,4.7C122.4,840.2,122.5,840.5,122.4,840.8
					L122.4,840.8z"/>
			</g>
			<path fill="#3C2415" d="M179.5,704.8c-40.5,0-62.9-16.7-63.8-17.5c-0.8-0.6-1-1.8-0.3-2.6c0.6-0.8,1.8-1,2.6-0.3
				c0.2,0.2,22.9,17,62.8,16.7c0,0,0,0,0,0c1,0,1.8,0.8,1.8,1.8c0,1-0.8,1.8-1.8,1.8C180.3,704.7,179.9,704.8,179.5,704.8z"/>
			<path fill="#3C2415" d="M179.1,753.3c-20.2,0-44-5.7-44.3-5.8c-0.4-0.1-0.8-0.3-1-0.7c-12.2-16.2-23-47.9-23.5-49.2
				c-0.3-1,0.2-2,1.1-2.3c1-0.3,2,0.2,2.3,1.1c0.1,0.3,10.9,31.7,22.6,47.7c4,0.9,26,5.8,44.4,5.5c0,0,0,0,0,0c1,0,1.8,0.8,1.8,1.8
				c0,1-0.8,1.8-1.8,1.9C180.2,753.3,179.7,753.3,179.1,753.3z"/>
			<path fill="#3C2415" d="M124.8,764.4c-0.2,0-0.5,0-0.7-0.1c-0.9-0.4-1.4-1.4-1-2.4c0.2-0.5,5-12.4,11-17.6
				c0.8-0.7,1.9-0.6,2.6,0.2c0.7,0.8,0.6,1.9-0.2,2.6c-5.3,4.5-9.9,16-9.9,16.1C126.2,763.9,125.5,764.4,124.8,764.4z"/>
			<path fill="#3C2415" d="M180.7,678.5c-0.8,0-1.5-0.5-1.7-1.2c-1.5-4.1-8.5-5.4-13.6-6.4c-1.2-0.2-2.3-0.4-3.2-0.6
				c-3-0.7-5.9-1.3-8.9-1.9c-6.5-1.3-13.3-2.7-19.7-4.9c-7.3-2.5-11.3-6.8-11.7-12.8c-0.1-1,0.7-1.9,1.7-2c1,0,1.9,0.7,1.9,1.7
				c0.3,4.4,3.3,7.6,9.2,9.5c6.3,2.1,12.9,3.5,19.3,4.8c3,0.6,6,1.2,9,1.9c0.9,0.2,1.9,0.4,3.1,0.6c6,1.1,14.2,2.6,16.4,8.7
				c0.3,1-0.2,2-1.1,2.3C181.1,678.4,180.9,678.5,180.7,678.5z"/>
			
				<ellipse transform="matrix(0.7999 -0.6001 0.6001 0.7999 -363.5618 233.6123)" fill="#3C2415" cx="168.5" cy="662" rx="2.6" ry="3.9"/>
			<g>
				<path fill="#FFFFFF" d="M139,644.5c-2.2,0.4-4.9,0.2-8.1-1c0,0-12.2-1.9-12.1-18.7c0,0,0.2-20.2,9.4-27.5c0,0,0,0,0,0
					c1.4-1.1,3-1.9,4.9-2.3c0,0,13.2-0.4,14.8,29.3C147.9,624.2,149.6,642.4,139,644.5z"/>
				<path fill="#3C2415" d="M136.9,646.5c-2,0-4.2-0.4-6.6-1.3c-1.8-0.4-13.6-3.6-13.5-20.5c0-0.9,0.4-21.2,10.1-28.9
					c1.7-1.4,3.7-2.3,5.7-2.7c0.1,0,0.1,0,0.4,0c1.2,0,14.9,0.7,16.6,31c0.1,0.7,1.8,19.8-10.3,22.1
					C138.6,646.4,137.8,646.5,136.9,646.5z M133.2,596.8c-1.4,0.3-2.7,0.9-3.9,1.9c-8.4,6.7-8.7,25.9-8.7,26.1
					c-0.1,15.1,10.5,16.9,10.6,16.9c0.1,0,0.2,0,0.4,0.1c2.8,1,5.2,1.3,7.1,0.9c0,0,0,0,0,0c8.9-1.7,7.4-18.1,7.4-18.3
					C144.6,598.8,134.5,596.9,133.2,596.8z"/>
			</g>
			<path fill="#3C2415" d="M139,644.5c-13-2.2-15.3-16-15.3-16c-3-14.3,4.1-30.3,4.4-31.2c0,0,0,0,0,0c1.4-1.1,3-1.9,4.9-2.3
				c0,0,13.2-0.4,14.8,29.3C147.9,624.2,149.6,642.4,139,644.5z"/>
			<ellipse fill="#BE1E2D" cx="137.4" cy="623.9" rx="5.9" ry="12.6"/>
			<circle fill="#FFFFFF" cx="135" cy="607.5" r="5.5"/>
			<path fill="#3C2415" d="M152.2,603.8c-0.8,0-1.5-0.5-1.8-1.4c-3.7-13.6-21.2-17.2-21.3-17.2c-1-0.2-1.6-1.2-1.4-2.1
				c0.2-1,1.2-1.7,2.1-1.4c0.8,0.2,19.9,4,24.2,19.9c0.3,1-0.3,2-1.3,2.2C152.5,603.8,152.4,603.8,152.2,603.8z"/>
			<g>
				<path fill="#CB9783" d="M253.2,756.5c0,0,16.5-2.7,18.5-43.5c0,0-4.7-1-10.3-4.4C263.3,739.4,253.2,756.5,253.2,756.5z"/>
				<path fill="#3C2415" d="M253.2,758.3c-0.6,0-1.2-0.3-1.5-0.8c-0.4-0.6-0.4-1.4-0.1-2c0.1-0.2,9.8-17.1,8-46.9
					c0-0.7,0.3-1.3,0.9-1.7c0.6-0.3,1.3-0.3,1.9,0c5.2,3.2,9.6,4.2,9.7,4.2c0.9,0.2,1.5,1,1.5,1.9c-2.1,41.8-19.3,45.1-20,45.2
					C253.4,758.3,253.3,758.3,253.2,758.3z M263.4,711.8c0.7,19.6-3.4,33.3-6.2,40.3c4.5-4,11.1-13.8,12.5-37.7
					C268.4,714,266.1,713.2,263.4,711.8z"/>
			</g>
			<g>
				<path fill="#79CFDF" d="M243.6,658.9c0,0,27.8-11.2,71.6,31.9c0,0,5.9,5.4,1,6.4c0,0-5.1,0.2,1.9,6.4c0,0,19.1,14.7-46.4,9.4
					C271.7,713,236.8,706.9,243.6,658.9z"/>
				<path fill="#3C2415" d="M296.1,716c-6.4,0-14.5-0.3-24.5-1.1c-0.5-0.1-36.7-7.1-29.8-56.3c0.1-0.6,0.5-1.2,1.1-1.4
					c1.2-0.5,29.4-11.1,73.5,32.3c0.9,0.9,4.1,4.1,3.4,6.9c-0.3,1-1,2.2-3.3,2.6c0,0-0.1,0-0.1,0c0.3,0.5,1,1.5,2.9,3.2
					c1.6,1.2,4.1,4.2,2.9,7.3C321.1,712.5,316.8,716,296.1,716z M245.2,660.3c-2.4,18.5,1.5,33.1,11.1,42.4
					c7.4,7.1,15.6,8.6,15.6,8.6c42.1,3.3,46.4-1.9,46.8-3c0.4-1-1.2-2.7-1.8-3.1c-3.7-3.3-4.9-5.6-4.2-7.5c0.5-1.5,2-2.1,3.2-2.2
					c0.2,0,0.3-0.1,0.3-0.1c-0.2-0.7-1.2-2.1-2.3-3.1c-22.2-21.8-40-29.2-51-31.6C253.7,658.5,247.5,659.7,245.2,660.3z"/>
			</g>
			<g>
				<path fill="#79CFDF" d="M253.2,756.5c0,0,17.2,23.9,9.3,57.6c0,0-1.5,3.5,2.1,5.6c0,0,23.8,14.5,2.1,13.6c0,0-5.4-0.5-3.2,3.7
					c0,0,4.7,7.4-13.6,0.8c0,0-6.2-4-8.9,2.7c0,0,1.5,11.9-25.3-10.1c0,0-5.2-2.5-1.3-10.8c0,0,4.3-19.8-5.4-35.7
					C208.8,784,229.9,761.8,253.2,756.5z"/>
				<path fill="#3C2415" d="M237.9,845.6c-3.5,0-9.9-2.6-23.4-13.7c-1.2-0.8-5.9-4.4-2-12.8c0.4-2,3.5-19.9-5.2-34.1
					c-0.4-0.7-0.3-1.6,0.2-2.2c0.9-0.9,21.8-22.7,45.3-28c0.7-0.2,1.5,0.1,1.9,0.7c0.7,1,17.6,25,9.6,59.1c0,0.1-0.1,0.2-0.1,0.3
					c-0.2,0.5-0.7,2.1,1.3,3.2c4.1,2.5,13.5,8.8,12,13.5c-1,3.5-6.4,3.7-10.9,3.5c-0.7-0.1-1.6,0.1-1.9,0.2c0,0,0.1,0.3,0.3,0.8
					c0.7,1.1,1.2,3.2,0,4.7c-1.9,2.4-6.7,2-15.9-1.3c-0.1,0-0.3-0.1-0.4-0.2c-0.6-0.4-2.5-1.2-3.9-0.7c-0.9,0.3-1.6,1-2.1,2.3
					c0,1.3-0.5,3.1-2.2,4.1C239.8,845.4,239,845.6,237.9,845.6z M211.1,784.3c9.1,16.1,5.1,34.9,4.9,35.8c0,0.1-0.1,0.3-0.1,0.4
					c-3.1,6.5,0.5,8.3,0.5,8.4c0.1,0.1,0.3,0.1,0.4,0.2c17.6,14.5,21.5,13,21.9,12.8c0.4-0.2,0.4-1,0.4-1c0-0.3,0-0.6,0.1-0.9
					c1-2.5,2.5-4.1,4.6-4.7c3-1,6,0.6,6.8,1c9.9,3.5,11.6,2.4,11.7,2.3c-0.1,0.1-0.2-0.3-0.4-0.6c-1.2-2.3-0.8-3.8-0.2-4.7
					c1.4-2.1,4.5-1.9,5.1-1.8c6.3,0.3,7.1-1,7.1-1c0.2-1.2-4.2-5.6-10.4-9.3c-3.8-2.1-3.6-5.9-2.9-7.7c6.7-28.6-5.3-50.1-8.3-55
					C233.1,763.5,215.4,780.1,211.1,784.3z M214.3,819.6L214.3,819.6L214.3,819.6z"/>
			</g>
			<path fill="#3C2415" d="M181.9,704.8c-0.4,0-0.8,0-1.2,0c-1,0-1.8-0.8-1.8-1.8c0-1,0.8-1.8,1.8-1.8c0,0,0,0,0,0
				c40,0.3,62.5-16.5,62.8-16.7c0.8-0.6,2-0.5,2.6,0.3c0.6,0.8,0.5,2-0.3,2.6C244.8,688,222.4,704.8,181.9,704.8z"/>
			<path fill="#3C2415" d="M182.4,753.3c-0.6,0-1.1,0-1.7,0c-1,0-1.8-0.8-1.8-1.9c0-1,0.8-1.9,1.9-1.8c18.3,0.3,40.4-4.6,44.4-5.5
				c11.7-15.9,22.5-47.4,22.6-47.7c0.3-1,1.4-1.5,2.3-1.1c1,0.3,1.5,1.4,1.1,2.3c-0.5,1.3-11.3,33-23.5,49.2c-0.3,0.3-0.6,0.6-1,0.7
				C226.4,747.5,202.6,753.3,182.4,753.3z"/>
			<path fill="#3C2415" d="M236.7,764.4c-0.7,0-1.4-0.4-1.7-1.2c0-0.1-4.6-11.6-9.9-16.1c-0.8-0.7-0.9-1.8-0.2-2.6
				c0.7-0.8,1.8-0.9,2.6-0.2c6,5.1,10.8,17.1,11,17.6c0.4,0.9-0.1,2-1,2.4C237.1,764.3,236.9,764.4,236.7,764.4z"/>
			<g>
				<path fill="#79CFDF" d="M180.7,790.1c-3,0.3-12.1-1.1-12.1-1.1c3.8,12.4,12.1,11.6,12.1,11.6s8.3,0.8,12.1-11.6
					C192.8,789,183.8,790.4,180.7,790.1z"/>
				<path fill="#3C2415" d="M180.4,802.5c-2,0-9.8-0.8-13.5-12.9c-0.2-0.6-0.1-1.3,0.4-1.7s1-0.7,1.7-0.6c2.5,0.4,9.3,1.3,11.6,1
					c0.1,0,0.3,0,0.4,0c2.3,0.2,9.2-0.7,11.6-1c0.6-0.1,1.3,0.1,1.7,0.6c0.4,0.5,0.5,1.1,0.4,1.7c-4,12.8-12.5,13-13.8,12.9
					C180.7,802.5,180.6,802.5,180.4,802.5z M180.7,798.8c0.1,0,0.1,0,0.2,0c0.2,0,5.7,0.3,9.1-7.6c-2.9,0.4-7.2,0.8-9.3,0.7
					c-2.2,0.2-6.4-0.3-9.3-0.7c3.5,7.9,8.9,7.6,9.2,7.6C180.6,798.8,180.7,798.8,180.7,798.8z"/>
			</g>
			<path fill="#3C2415" d="M180.7,678.5c-0.2,0-0.4,0-0.6-0.1c-1-0.3-1.4-1.4-1.1-2.3c2.2-6.1,10.4-7.6,16.4-8.7
				c1.1-0.2,2.2-0.4,3.1-0.6c3-0.7,6-1.3,9-1.9c6.4-1.3,13-2.7,19.3-4.8c5.9-2,8.9-5.1,9.2-9.5c0.1-1,1-1.8,1.9-1.7
				c1,0.1,1.8,0.9,1.7,2c-0.4,6-4.3,10.3-11.7,12.8c-6.5,2.2-13.2,3.6-19.7,4.9c-3,0.6-6,1.2-8.9,1.9c-0.9,0.2-2,0.4-3.2,0.6
				c-5.1,0.9-12.1,2.2-13.6,6.4C182.2,678,181.5,678.5,180.7,678.5z"/>
			
				<ellipse transform="matrix(0.6001 -0.7999 0.7999 0.6001 -452.4004 419.0389)" fill="#3C2415" cx="192.9" cy="662" rx="3.9" ry="2.6"/>
			<g>
				<path fill="#FFFFFF" d="M222.5,644.5c2.2,0.4,4.9,0.2,8.1-1c0,0,12.2-1.9,12.1-18.7c0,0-0.2-20.2-9.4-27.5c0,0,0,0,0,0
					c-1.4-1.1-3-1.9-4.9-2.3c0,0-13.2-0.4-14.8,29.3C213.6,624.2,211.8,642.4,222.5,644.5z"/>
				<path fill="#3C2415" d="M224.5,646.5c-0.8,0-1.7-0.1-2.4-0.2c-12.1-2.3-10.4-21.4-10.3-22.2c1.7-31,16.1-31,16.7-30.9
					c0.1,0,0.2,0,0.3,0c2,0.4,4,1.3,5.7,2.7c9.7,7.8,10.1,28,10.1,28.9c0.1,16.9-11.7,20.1-13.5,20.5
					C228.7,646.1,226.5,646.5,224.5,646.5z M228.3,596.8c-1.2,0.1-11.4,1.9-12.8,27.6c0,0.2-1.5,16.6,7.4,18.3c0,0,0,0,0,0
					c2,0.4,4.4,0.1,7.1-0.9c0.1,0,0.2-0.1,0.4-0.1c0.4-0.1,10.7-1.9,10.6-16.9c0-0.2-0.3-19.4-8.7-26
					C231,597.7,229.7,597.1,228.3,596.8z"/>
			</g>
			<path fill="#3C2415" d="M222.5,644.5c13-2.2,15.3-16,15.3-16c3-14.3-4.1-30.3-4.4-31.2c0,0,0,0,0,0c-1.4-1.1-3-1.9-4.9-2.3
				c0,0-13.2-0.4-14.8,29.3C213.6,624.2,211.8,642.4,222.5,644.5z"/>
			<ellipse fill="#BE1E2D" cx="224" cy="623.9" rx="5.9" ry="12.6"/>
			<circle fill="#FFFFFF" cx="226.5" cy="607.5" r="5.5"/>
			<path fill="#3C2415" d="M209.3,603.8c-0.2,0-0.3,0-0.5-0.1c-1-0.3-1.6-1.3-1.3-2.2c4.3-15.8,23.4-19.7,24.2-19.9
				c1-0.2,1.9,0.5,2.1,1.4c0.2,1-0.5,2-1.4,2.1c-0.2,0-17.7,3.6-21.3,17.2C210.8,603.3,210.1,603.8,209.3,603.8z"/>
		</g>
		<g>
			<g>
				<path fill="#FAAE65" d="M573.9,616.5c0,0,10.4-85-66.3-85s-66.3,85-66.3,85C427.8,638,454,666.1,454,666.1
					c26.5,31.9,53.6,29,53.6,29s27.1,2.9,53.6-29C561.2,666.1,587.4,638,573.9,616.5z"/>
				<path fill="#3C2415" d="M509.6,697c-1,0-1.7,0-2-0.1c-2.8,0.2-29.2,1.5-55.1-29.7c-1-1.1-26.5-28.9-13.1-51.2
					c-0.6-5.5-3.5-43.4,18.6-67.3c11.7-12.7,28.4-19.1,49.7-19.1s37.9,6.4,49.7,19.1c22.1,24,19.1,61.8,18.6,67.3
					c13.4,22.3-12.1,50.1-13.2,51.2C539.9,694.7,516.8,697,509.6,697z M507.6,693.3c0.1,0,0.1,0,0.2,0c0.3,0,26.5,2.3,51.9-28.3
					c0.3-0.4,25.2-27.5,12.5-47.5c-0.2-0.3-0.3-0.8-0.3-1.2c0-0.4,4.7-41-17.6-65.1c-11-11.9-26.7-17.9-46.8-17.9
					c-20.1,0-35.8,6-46.8,17.9c-22.3,24.1-17.6,64.7-17.6,65.1c0,0.4,0,0.8-0.3,1.2c-12.7,20.1,12.2,47.2,12.4,47.4
					c25.5,30.7,51.7,28.4,52,28.4C507.5,693.3,507.5,693.3,507.6,693.3z"/>
			</g>
			<g>
				<path fill="#FAAE65" d="M572.3,650c0,0,13.3-11.7,27.9-29.4h10.4c0,0,4.1,75.3-38.3,121.2c0,0-1.2-32.6-14.9-71.3
					C557.4,670.4,568.9,657.9,572.3,650z"/>
				<path fill="#3C2415" d="M572.3,743.6c-0.2,0-0.4,0-0.6-0.1c-0.7-0.3-1.2-0.9-1.3-1.7c0-0.3-1.4-32.8-14.8-70.8
					c-0.2-0.6-0.1-1.3,0.4-1.8c0.1-0.1,11.3-12.4,14.6-19.9c0.1-0.2,0.3-0.5,0.5-0.7c0.1-0.1,13.3-11.8,27.7-29.2
					c0.4-0.4,0.9-0.7,1.5-0.7h10.4c1,0,1.8,0.8,1.9,1.7c0,0.8,3.6,76.6-38.8,122.5C573.3,743.3,572.8,743.6,572.3,743.6z
					 M559.6,670.8c10.4,29.8,13.5,56.1,14.3,66.3c34.9-41.1,35.1-103.6,34.9-114.8h-7.7c-13.1,15.8-25.2,26.8-27.2,28.7
					C570.7,658.1,562.1,667.9,559.6,670.8z"/>
			</g>
			<g>
				<path fill="#BE1E2D" d="M600.2,620.5c0,0-14.2-8.6-5-28.5c0,0,1.2,5,5,7.6c0,0-6.7-24.1,8.9-35.1c0,0,0.9,8,4.4,13.5
					c1.8,2.9,3.5,5.8,4.7,9c3.2,8.8,6,24.2-7.5,33.5H600.2z"/>
				<path fill="#3C2415" d="M610.6,622.4h-10.4c-0.4,0-0.7-0.1-1-0.3c-0.2-0.1-15.4-9.7-5.8-30.8c0.3-0.7,1.1-1.2,1.9-1.1
					c0.7,0.1,1.4,0.5,1.6,1.2c-0.6-8.4,0.5-21,11-28.4c0.5-0.4,1.3-0.5,1.9-0.2c0.6,0.3,1,0.8,1.1,1.5c0,0.1,0.9,7.7,4.1,12.8
					c2.1,3.3,3.7,6.2,4.8,9.3c3.2,9,6.4,25.5-8.2,35.6C611.4,622.3,611,622.4,610.6,622.4z M600.8,618.7h9.2
					c12.1-8.7,9.2-23.2,6.4-31.1c-1-2.9-2.5-5.5-4.5-8.6c-2.2-3.5-3.5-8-4.1-10.9c-11.3,10.9-5.8,30.9-5.8,31.1
					c0.2,0.7-0.1,1.5-0.8,2c-0.7,0.4-1.5,0.4-2.2,0c-1.7-1.2-2.9-2.7-3.8-4.2C591,610.5,598.9,617.3,600.8,618.7z"/>
			</g>
			<path fill="#3C2415" d="M507,687.4c-5,0-36.3-1.6-58.4-41.6c-0.5-0.9-0.1-2,0.8-2.5c0.9-0.5,2.1-0.1,2.6,0.8
				c22.4,40.6,55.1,39.7,55.5,39.7c1-0.1,1.9,0.7,2,1.7c0,1-0.8,1.9-1.8,1.9C507.6,687.4,507.4,687.4,507,687.4z"/>
			<path fill="#3C2415" d="M501.3,678.1c-0.5,1.1-3,1.2-5.5,0.1c-2.6-1-4.2-2.8-3.8-3.9s3-1.2,5.5-0.1
				C500.1,675.3,501.8,677,501.3,678.1z"/>
			<g>
				<path fill="#FFFFFF" d="M461.7,637.3c-1.4-0.5-3-1.4-4.7-2.8c0,0-12-6.2-6.6-23.6c0,0,3-12.7,9-18.1c1.7-1.6,4.2-1.8,6.1-0.8
					c0.9,0.4,1.7,1.2,2.2,2.1c2,3.5,4.1,10.5,4.8,24.2C472.5,618.3,474.5,642.4,461.7,637.3z"/>
				<path fill="#3C2415" d="M465,639.8c-1.1,0-2.5-0.2-3.9-0.8c-1.6-0.6-3.2-1.6-5.1-2.9c-1.6-0.9-12.8-8.2-7.4-25.6
					c0.1-0.4,3.2-13.2,9.5-18.9c2.3-2,5.6-2.5,8.3-1.1c1.2,0.6,2.3,1.6,3,2.9c2.8,5,4.5,13.4,5.1,25c0.1,1.6,1.1,15.8-5.2,20.3
					C468.3,639.2,466.9,639.8,465,639.8z M463,593.3c-0.9,0-1.7,0.3-2.3,0.9c-5.5,5-8.4,17.1-8.5,17.2c-5,15.9,5.6,21.5,5.7,21.6
					c0.1,0,0.2,0.1,0.3,0.2c1.6,1.2,3.1,2,4.3,2.5c0,0,0,0,0,0c2.9,1.1,4.1,0.2,4.6-0.1c3.9-2.7,3.9-13.5,3.6-17.1
					c-0.7-13.8-2.9-20.4-4.6-23.5c-0.3-0.6-0.8-1-1.4-1.3C464.1,593.4,463.6,593.3,463,593.3z"/>
			</g>
			<path fill="#3C2415" d="M461.7,637.3L461.7,637.3c0,0-11-7.5-7.1-23.6c0,0,4-20.4,10.9-21.8c0.9,0.4,1.7,1.2,2.2,2.1
				c2,3.5,4.1,10.5,4.8,24.2C472.5,618.3,474.5,642.4,461.7,637.3z"/>
			<ellipse fill="#BE1E2D" cx="462.4" cy="620.5" rx="3.9" ry="8.7"/>
			<ellipse fill="#FFFFFF" cx="464.4" cy="607.7" rx="3.6" ry="3.5"/>
			<g>
				<path fill="#FAAE65" d="M450.4,661.7c0,0-53,26.6-67.5,90.6c0,0-3.9,11.3,8.1,4.4c0,0-0.9,13.1,17.2-6.1c0,0,6.4,14.3,14.3-0.6
					c1.1-2.1,1.8-4.4,2.2-6.7c0.5-2.3,1.8-6,5.8-9l13.8-8.7c0,0,5.6-37.9,13.5-55.2C457.8,670.4,452.4,664.5,450.4,661.7z"/>
				<path fill="#3C2415" d="M393.9,762.8c-0.6,0-1.2-0.1-1.8-0.3c-1.5-0.6-2.2-1.8-2.6-3c-2.5,1.2-5.4,1.9-7.4,0.3
					c-2.9-2.2-1.3-7.2-1-8.1c14.4-63.8,67.9-91.3,68.4-91.6c0.8-0.4,1.9-0.2,2.4,0.6c1.9,2.7,7.2,8.5,7.3,8.5
					c0.5,0.5,0.6,1.3,0.3,1.9c-7.6,16.8-13.3,54.4-13.3,54.7c-0.1,0.5-0.4,1-0.8,1.3l-13.8,8.7c-3.3,2.6-4.5,5.7-5,7.9
					c-0.6,2.8-1.4,5.1-2.4,7.1c-2.8,5.2-5.8,7.9-9.2,7.8c-3.3-0.1-5.7-2.8-7.1-4.9C401.7,759.8,397.2,762.8,393.9,762.8z M391,754.8
					c0.3,0,0.7,0.1,1,0.3c0.6,0.4,1,1,0.9,1.7c0,0.8,0.2,2.1,0.7,2.3c0.1,0,3,1,13.2-9.8c0.4-0.5,1.1-0.7,1.7-0.6
					c0.6,0.1,1.2,0.5,1.4,1.1c0.6,1.3,2.8,5,5.1,5.1c1.8,0,3.7-2,5.7-5.8c0.9-1.7,1.6-3.7,2.1-6.2c0.6-2.8,2.1-6.7,6.5-10.1
					l13.3-8.3c0.9-5.7,6-37.3,13-53.8c-1.3-1.5-3.9-4.4-5.7-6.6c-8.4,4.8-52.3,32-65.1,88.6c-0.6,1.8-0.7,4-0.3,4.3
					c0,0,1.2,0.6,5.6-1.9C390.4,754.9,390.7,754.8,391,754.8z"/>
			</g>
			<g>
				<path fill="#FAAE65" d="M442.9,741.7c0,0-25.7,19.2-19.6,51.5c0,0,2.1,13.9,13.9,19.9c0,0,15.8,9.6,30.2-8.8
					C467.3,804.3,440.7,790.3,442.9,741.7z"/>
				<path fill="#3C2415" d="M447.2,817.3c-6.5,0-11-2.7-11.1-2.7c-12.3-6.3-14.6-20.5-14.7-21.1c-6.1-32.9,20.1-53,20.4-53.2
					c0.6-0.4,1.4-0.5,2-0.2c0.7,0.3,1.1,1,1,1.7c-2.2,46.9,23.1,60.7,23.4,60.9c0.5,0.3,0.8,0.7,0.9,1.2c0.1,0.5,0,1.1-0.3,1.5
					C461.3,814.9,453.4,817.3,447.2,817.3z M440.9,746c-6.5,6.4-20.2,23-15.7,46.8c0,0.2,2.1,13.1,12.9,18.6
					c0.7,0.4,13.8,8,26.5-6.7C458.5,800.6,440.4,784.9,440.9,746z"/>
			</g>
			<g>
				<path fill="#FAAE65" d="M431.5,809c0,0-29.9,23-9.2,31.4c0,0,23.2,9.9,38.6-4.6c0,0,19.7-18.4,6.4-31.6
					C467.3,804.3,452.2,826.3,431.5,809z"/>
				<path fill="#3C2415" d="M439.5,845.6c-9.6,0-17.4-3.2-18-3.5c-5-2-7.8-5-8.4-9c-1.6-11,16.3-25,17.1-25.6c0.7-0.5,1.7-0.5,2.4,0
					c5.7,4.7,11.4,6.8,17,6c9.6-1.3,15.9-10.3,16-10.4c0.3-0.5,0.8-0.8,1.4-0.8c0.6,0,1.1,0.1,1.5,0.5c3.5,3.4,5.2,7.5,5.2,12.1
					c-0.2,11.2-11.1,21.6-11.6,22.1C455.3,843.7,446.9,845.6,439.5,845.6z M431.5,811.4c-5.3,4.4-15.5,14.4-14.5,21.3
					c0.4,2.6,2.4,4.6,6.1,6.1c0.3,0.1,22.3,9.2,36.5-4.3c0.1,0,4.8-4.5,7.8-10.4c3.5-6.7,3.4-12.3,0-16.9c-2.6,3.1-8.7,9-17.1,10.1
					C444,818.1,437.7,816.2,431.5,811.4z"/>
			</g>
			<path fill="#3C2415" d="M508.2,687.4c-0.3,0-0.5,0-0.6,0c-1,0-1.9-0.9-1.8-1.9c0-1,0.9-1.9,2-1.8c0.3,0,33.2,0.8,55.5-39.7
				c0.5-0.9,1.6-1.2,2.6-0.8c0.9,0.5,1.3,1.6,0.8,2.5C544.5,685.7,513.2,687.4,508.2,687.4z"/>
			<path fill="#3C2415" d="M513.9,678.1c0.5,1.1,3,1.2,5.5,0.1c2.6-1,4.2-2.8,3.8-3.9c-0.5-1.1-3-1.2-5.5-0.1
				C515.1,675.3,513.4,677,513.9,678.1z"/>
			<g>
				<path fill="#FFFFFF" d="M553.5,637.3c1.4-0.5,3-1.4,4.7-2.8c0,0,12-6.2,6.6-23.6c0,0-3-12.7-9-18.1c-1.7-1.6-4.2-1.8-6.1-0.8
					c-0.9,0.4-1.7,1.2-2.2,2.1c-2,3.5-4.1,10.5-4.8,24.2C542.7,618.3,540.7,642.4,553.5,637.3z"/>
				<path fill="#3C2415" d="M550.2,639.8c-1.9,0-3.3-0.6-4.3-1.3c-6.3-4.4-5.3-18.7-5.1-20.3c0.6-11.5,2.3-19.9,5.1-24.9
					c0.7-1.2,1.7-2.2,3-2.9c2.7-1.4,6-0.9,8.3,1.1c6.3,5.7,9.4,18.5,9.6,19.1c5.4,17.3-5.9,24.6-7.4,25.5c-1.9,1.4-3.5,2.3-5.1,2.9
					C552.7,639.6,551.4,639.8,550.2,639.8z M552.2,593.3c-0.5,0-1.1,0.1-1.6,0.4c-0.6,0.3-1.1,0.8-1.4,1.3
					c-1.7,3.1-3.9,9.7-4.6,23.5c-0.4,5.4,0.1,14.7,3.6,17.2c0.4,0.3,1.7,1.2,4.6,0.1c0,0,0,0,0,0c1.2-0.5,2.7-1.3,4.3-2.5
					c0.1-0.1,0.2-0.1,0.3-0.2c0.4-0.2,10.6-5.8,5.7-21.5c-0.1-0.2-3-12.4-8.5-17.3C553.9,593.6,553,593.3,552.2,593.3z"/>
			</g>
			<path fill="#3C2415" d="M553.5,637.3L553.5,637.3c0,0,11-7.5,7.1-23.6c0,0-4-20.4-10.9-21.8c-0.9,0.4-1.7,1.2-2.2,2.1
				c-2,3.5-4.1,10.5-4.8,24.2C542.7,618.3,540.7,642.4,553.5,637.3z"/>
			<ellipse fill="#BE1E2D" cx="552.8" cy="620.5" rx="3.9" ry="8.7"/>
			<ellipse fill="#FFFFFF" cx="550.8" cy="607.7" rx="3.6" ry="3.5"/>
			<g>
				<path fill="#FAAE65" d="M557.4,670.4c-24.7,27-49.8,24.7-49.8,24.7s-25.1,2.3-49.8-24.7c0,0-56.2,147.7,49.8,142.5
					C613.6,818.1,557.4,670.4,557.4,670.4z"/>
				<path fill="#3C2415" d="M512.9,814.9c-1.8,0-3.6,0-5.4-0.1c-24.3,1.2-42.3-5.5-53.4-20.1c-12.7-16.6-16.2-42.7-10.5-77.6
					c4.3-25.8,12.3-47.1,12.4-47.3c0.2-0.6,0.8-1.1,1.4-1.2c0.7-0.1,1.3,0.1,1.8,0.6c23.8,26,48,24.1,48.2,24.1c0.1,0,0.2,0,0.4,0
					c0.2,0,24.5,1.8,48.2-24.1c0.4-0.5,1.1-0.7,1.8-0.6c0.7,0.1,1.2,0.6,1.4,1.2c0.1,0.2,8.1,21.5,12.4,47.3
					c5.8,34.9,2.2,61-10.5,77.6C550.8,808.1,534.6,814.9,512.9,814.9z M507.5,811.1c23.3,1.1,40.2-5.1,50.5-18.6
					c25.9-33.8,3.8-103.6-1.4-118.6c-23.5,24.1-46.6,23.2-49.1,23c-2.5,0.2-25.5,1.1-49.1-23c-5.2,15-27.2,84.8-1.4,118.6
					C467.5,806,484.4,812.2,507.5,811.1z"/>
			</g>
			<g>
				<path fill="#FFEBA8" d="M558.8,748.1c0,0-5-32.6-31.6-56.6c0,0-9.8,4.3-19.6,3.6c-9.8,0.8-19.6-3.6-19.6-3.6
					c-26.6,23.9-31.6,56.6-31.6,56.6c-8.8,41,25.3,62.4,25.3,62.4c11.8,3,25.9,2.4,25.9,2.4s14.1,0.7,25.9-2.4
					C533.5,810.5,567.6,789.1,558.8,748.1z"/>
				<path fill="#3C2415" d="M511.1,814.8c-2.1,0-3.4-0.1-3.6-0.1c-0.4,0-14.4,0.6-26.3-2.4c-0.2-0.1-0.4-0.1-0.5-0.2
					c-0.4-0.2-35.1-22.6-26.1-64.3c0.2-1.3,5.3-33.5,32.2-57.5c0.6-0.5,1.4-0.6,2.1-0.3c0.1,0,9.5,4.1,18.7,3.4c0.1,0,0.2,0,0.3,0
					c9.3,0.7,18.6-3.4,18.7-3.4c0.7-0.3,1.5-0.2,2.1,0.3c26.5,23.8,31.9,55.6,32.2,57.6c9,41.7-25.7,64.1-26.1,64.3
					c-0.2,0.1-0.4,0.2-0.5,0.2C525.6,814.5,516.1,814.8,511.1,814.8z M507.5,811.1c0.3,0,13.9,0.6,25.2-2.2
					c3.2-2.1,32.4-22.5,24.2-60.4c0,0,0-0.1,0-0.1c0-0.3-5.1-31.6-30.1-54.7c-3,1.1-11,3.9-19.2,3.2c-8.2,0.6-16.2-2.1-19.2-3.2
					c-25.1,23.1-30.1,54.4-30.1,54.7c-8.1,37.6,21.2,58.5,24.2,60.5C493.8,811.7,507.4,811.1,507.5,811.1z M533.5,810.5L533.5,810.5
					L533.5,810.5z"/>
			</g>
			<g>
				<path fill="#FAAE65" d="M564.8,661.7c0,0,53,26.6,67.5,90.6c0,0,3.9,11.3-8.1,4.4c0,0,0.9,13.1-17.2-6.1c0,0-6.4,14.3-14.3-0.6
					c-1.1-2.1-1.8-4.4-2.2-6.7c-0.5-2.3-1.8-6-5.8-9l-13.8-8.7c0,0-5.6-37.9-13.5-55.2C557.4,670.4,562.8,664.5,564.8,661.7z"/>
				<path fill="#3C2415" d="M621.3,762.8c-3.3,0-7.8-3-13.9-9.2c-1.4,2.1-3.8,4.8-7.1,4.9c-3.4,0.1-6.5-2.5-9.2-7.8
					c-1.1-2-1.8-4.3-2.4-7.1c-0.4-2.2-1.7-5.3-5.1-8l-13.7-8.6c-0.5-0.3-0.8-0.8-0.8-1.3c-0.1-0.4-5.7-37.9-13.3-54.7
					c-0.3-0.7-0.2-1.4,0.3-1.9c0.1-0.1,5.4-5.9,7.3-8.5c0.5-0.7,1.6-1,2.4-0.6c0.5,0.3,54,27.8,68.4,91.8c0.3,0.8,1.8,5.7-1,8
					c-2,1.6-4.9,0.8-7.4-0.3c-0.4,1.2-1.1,2.4-2.6,3C622.5,762.7,621.9,762.8,621.3,762.8z M607,748.7c0.5,0,1,0.2,1.4,0.6
					c10.2,10.8,13.1,9.8,13.2,9.8c0.5-0.2,0.7-1.5,0.7-2.4c0-0.7,0.3-1.3,0.9-1.7c0.6-0.4,1.4-0.4,2,0c4.4,2.6,5.6,1.9,5.6,1.9
					c0.5-0.4,0.3-2.5-0.2-4.1c-12.8-56.8-56.7-84-65.1-88.7c-1.8,2.2-4.4,5.2-5.7,6.6c7.1,16.4,12.1,48.1,13,53.8l13.1,8.2
					c4.5,3.5,6.1,7.5,6.6,10.2c0.5,2.5,1.2,4.5,2.1,6.2c2,3.7,4,5.8,5.7,5.8c0,0,0,0,0.1,0c2.3-0.1,4.5-3.8,5.1-5.1
					c0.3-0.6,0.8-1,1.4-1.1C606.8,748.7,606.9,748.7,607,748.7z"/>
			</g>
			<g>
				<path fill="#FAAE65" d="M572.3,741.7c0,0,25.7,19.2,19.6,51.5c0,0-2.1,13.9-13.9,19.9c0,0-15.8,9.6-30.2-8.8
					C547.9,804.3,574.5,790.3,572.3,741.7z"/>
				<path fill="#3C2415" d="M568,817.3c-6.2,0-14.1-2.4-21.6-12c-0.3-0.4-0.5-1-0.3-1.5c0.1-0.5,0.5-1,0.9-1.2
					c0.3-0.1,25.6-14.2,23.4-60.9c0-0.7,0.4-1.4,1-1.7c0.7-0.3,1.5-0.3,2,0.2c0.3,0.2,26.5,20.3,20.3,53.2
					c-0.1,0.5-2.4,14.8-14.8,21.2C578.9,814.7,574.4,817.3,568,817.3z M550.7,804.7c12.8,14.8,25.8,7.1,26.4,6.8
					c10.9-5.5,13-18.5,13-18.6c4.5-23.9-9.3-40.5-15.7-46.9C574.8,784.9,556.7,800.6,550.7,804.7z"/>
			</g>
			<g>
				<path fill="#FAAE65" d="M583.7,809c0,0,29.9,23,9.2,31.4c0,0-23.2,9.9-38.6-4.6c0,0-19.7-18.4-6.4-31.6
					C547.9,804.3,563,826.3,583.7,809z"/>
				<path fill="#3C2415" d="M575.7,845.6c-7.3,0-15.7-1.9-22.7-8.5c-0.5-0.4-11.4-10.8-11.6-22c-0.1-4.6,1.7-8.7,5.2-12.1
					c0.4-0.4,1-0.6,1.5-0.5c0.6,0.1,1.1,0.4,1.4,0.8c0.1,0.1,6.4,9.1,16,10.4c5.6,0.8,11.3-1.3,17-6c0.7-0.6,1.7-0.6,2.4,0
					c0.8,0.6,18.7,14.5,17.1,25.6c-0.6,3.9-3.4,7-8.4,9C593,842.4,585.2,845.6,575.7,845.6z M547.8,807.2c-3.5,4.6-3.5,10.2,0,16.9
					c3.1,5.9,7.8,10.4,7.8,10.4c14.2,13.5,36.3,4.4,36.5,4.3c3.8-1.5,5.8-3.5,6.1-6.1c1-6.9-9.2-16.9-14.5-21.3
					c-6.2,4.8-12.5,6.7-18.8,5.9C556.5,816.2,550.5,810.3,547.8,807.2z"/>
			</g>
		</g>
		<g>
			<g>
				<path fill="#F9CD15" d="M908.5,596.4c0,0,41-41.7,13.9-38.6c0,0-21.2,1-39.3,13.9c0,0-18.1-11.5-41.4-10.4
					c-23.3-1-41.4,10.4-41.4,10.4c-18.1-12.9-39.3-13.9-39.3-13.9c-27.1-3.1,13.9,38.6,13.9,38.6c-7.6,15.3-8.2,39.7-8.2,39.7
					c-2.9,51.3,48.5,61.1,48.5,61.1c8,16,26.4,12.9,26.4,12.9s18.4,3.1,26.4-12.9c0,0,51.4-9.7,48.5-61.1
					C916.7,636.1,916.1,611.7,908.5,596.4z"/>
				<path fill="#3C2415" d="M838.2,712.1c-6.1,0-17.8-1.6-24.1-13.3c-6.9-1.6-51.9-14.2-49.1-62.8c0-0.9,0.6-23.8,7.8-39.3
					c-6.1-6.4-26.5-28.4-22.2-37.3c1.4-2.9,5-4.1,10.7-3.5c0.8,0,21.1,1.2,39.1,13.5c4.3-2.5,20.7-11,41.4-10.1
					c20.5-0.9,36.9,7.6,41.2,10.1c18.1-12.4,38.4-13.5,39.3-13.6c5.5-0.6,9.1,0.5,10.5,3.5c4.3,8.9-16,30.9-22.2,37.3
					c7.2,15.5,7.8,38.4,7.8,39.3c2.8,48.5-42.2,61.1-49.1,62.7c-8.1,15-25.2,13.4-27.6,13.1C841.2,712,839.9,712.1,838.2,712.1z
					 M841.7,708.2c0.1,0,0.2,0,0.3,0c0.7,0.1,17.2,2.7,24.5-11.9c0.3-0.5,0.7-0.9,1.3-1c2-0.4,49.8-10.1,47-59.2
					c0-0.3-0.6-24.3-8-39c-0.4-0.7-0.2-1.5,0.3-2.1c10.8-11,24.9-28.8,22.4-34c-0.9-1.8-4.7-1.7-7-1.4c-0.3,0-21,1.2-38.4,13.6
					c-0.6,0.4-1.4,0.5-2,0.1c-0.2-0.1-17.8-11.1-40.3-10.1c-22.6-1-40.3,10-40.5,10.1c-0.6,0.4-1.4,0.4-2-0.1
					c-17.4-12.4-38.1-13.6-38.3-13.6c-2.3-0.3-6.2-0.4-7.1,1.4c-2.5,5.2,11.6,23,22.4,34c0.5,0.6,0.7,1.4,0.3,2.1
					c-7.4,14.8-8,38.7-8,39c-2.8,49.2,46.5,59.1,47,59.2c0.6,0.1,1,0.5,1.3,1c7.3,14.6,24.3,11.9,24.5,11.9
					C841.5,708.2,841.6,708.2,841.7,708.2z"/>
			</g>
			<g>
				<path fill="#E5AE1B" d="M861.1,689.9c-5.6-7.1-19.4-6.6-19.4-6.6s-13.9-0.5-19.4,6.6c-1.8,2.3-1.8,5.6-0.1,8
					c2.6,3.5,8.1,8,19.5,7.3c11.3,0.8,16.9-3.8,19.5-7.3C863,695.5,863,692.3,861.1,689.9z"/>
				<path fill="#3C2415" d="M844.2,707.1c-0.8,0-1.6,0-2.5-0.1c-11.8,0.7-17.9-3.9-20.9-8c-2.3-3.1-2.2-7.2,0.1-10.2
					c6.1-7.8,20.3-7.4,20.9-7.3c0.5,0,14.7-0.4,20.8,7.3l0,0c2.3,3,2.3,7.2,0.1,10.2C859.9,702.8,854.4,707.1,844.2,707.1z
					 M841.7,703.4c0,0,0.1,0,0.1,0c10.3,0.7,15.4-3.2,17.9-6.5c1.3-1.7,1.3-4.1,0-5.8l0,0c-4.9-6.3-17.8-6-17.9-5.9
					c-0.3,0-13.1-0.4-18,5.9c-1.3,1.7-1.3,4,0,5.8c2.5,3.4,7.6,7.2,17.9,6.5C841.6,703.4,841.7,703.4,841.7,703.4z"/>
			</g>
			<g>
				<path fill="#3C2415" d="M786.9,583.9c0,0-5,4.5-7.2,8.3c0,0-15-12.1-20.4-24.1c-0.7-1.5,0.8-3,2.3-2.5
					C766.8,567.6,776.7,572.6,786.9,583.9z"/>
			</g>
			<path fill="#3C2415" d="M815.3,699c0,0-0.1,0-0.1,0c-1-0.1-1.8-0.9-1.7-1.9c0-0.3,0.2-6.6-7-11c-0.8-0.5-21.8-12.4-24.5-26.5
				c-0.2-1,0.5-2,1.5-2.1c1-0.2,2,0.5,2.1,1.5c2.4,12.4,22.5,23.9,22.7,24c9.2,5.6,8.8,14,8.8,14.3C817.1,698.3,816.3,699,815.3,699
				z"/>
			<ellipse fill="#3C2415" cx="833.2" cy="694.7" rx="2.8" ry="5.7"/>
			<path fill="#3C2415" d="M781,640c0.4,4.4,2.9,10.5,12.4,15.7c1.4,0.8,3.1-0.4,2.8-2c-0.7-4.7-2.3-12.8-5.5-17.4
				C787.7,631.9,780.6,634.6,781,640z"/>
			<path fill="#3C2415" d="M822.3,665c-0.6,0-1.2-0.3-1.6-0.9c-0.5-0.9-0.2-2,0.7-2.5c0.3-0.2,8.6-4.9,20.5-4.1c1,0.1,1.8,1,1.7,2
				c-0.1,1-1,1.7-2,1.7c-10.7-0.8-18.3,3.5-18.4,3.6C822.9,664.9,822.6,665,822.3,665z"/>
			<path fill="#3C2415" d="M825.2,671.5c-0.6,0-1.2-0.3-1.6-0.9c-0.5-0.9-0.3-2,0.6-2.5c0.3-0.2,6.2-3.8,17.5-3.5
				c1,0,1.8,0.9,1.8,1.9c0,1-0.8,1.8-1.8,1.8c0,0,0,0,0,0c-10.1-0.3-15.4,3-15.5,3C825.9,671.4,825.5,671.5,825.2,671.5z"/>
			<path fill="#3C2415" d="M828.4,677.1c-0.7,0-1.4-0.4-1.7-1.2c-0.4-0.9,0.1-2,1-2.4c0.2-0.1,6.1-2.4,14-2.3c1,0,1.8,0.8,1.8,1.9
				c0,1-0.8,1.8-1.8,1.8c-0.2,0-0.3,0-0.4,0c-6.9,0-12.1,2-12.2,2C828.9,677.1,828.6,677.1,828.4,677.1z"/>
			<g>
				<path fill="#F9CD15" d="M750.2,661.2c0,0-46.8,38.4-37.1,85.7c0,0,6,18.1,28.7,0.5C741.8,747.4,764,690.5,750.2,661.2z"/>
				<path fill="#3C2415" d="M724.5,756.9c-1.4,0-2.8-0.2-4.1-0.6c-6.7-2-9-8.6-9.1-8.9c-9.9-48,37.2-87.3,37.7-87.7
					c0.4-0.4,1-0.5,1.6-0.4c0.6,0.1,1,0.5,1.3,1c14,29.7-7.4,85.3-8.3,87.6c-0.1,0.3-0.3,0.6-0.6,0.8
					C736,754.2,729.9,756.9,724.5,756.9z M714.9,746.5c0,0,1.8,4.9,6.6,6.3c4.8,1.4,11.3-0.9,18.8-6.6c2-5.3,19.8-54.6,9.2-82
					C741,671.9,706.6,706.2,714.9,746.5C714.9,746.5,714.9,746.5,714.9,746.5z M714.9,746.5L714.9,746.5L714.9,746.5z"/>
			</g>
			<g>
				<path fill="#585044" d="M741.8,747.4c0,0-29.8,28.7-2.3,65.6c0,0,11.6,12.6,29,6.6c1.9-0.6,3.8-1,5.8-0.8
					c4.1,0.5,9.7,2.9,7.7,13.2c0,0,10.1-7.6,13-14.4C795,817.7,738.6,802.1,741.8,747.4z"/>
				<path fill="#3C2415" d="M781.9,833.9c-0.3,0-0.7-0.1-1-0.3c-0.6-0.4-1-1.2-0.8-1.9c0.8-3.8,0.5-6.6-0.9-8.5
					c-1.1-1.5-2.8-2.3-5.2-2.6c-1.5-0.2-3.1,0.1-5,0.7c-18.3,6.3-30.4-6.6-30.9-7.1c-14.8-19.8-13.3-37.3-9.5-48.4
					c4.1-12.1,11.6-19.4,11.9-19.7c0.5-0.5,1.4-0.7,2-0.3c0.7,0.3,1.1,1,1.1,1.8c-3.1,52.6,51.2,68.3,51.8,68.4
					c0.5,0.1,0.9,0.5,1.2,1c0.2,0.5,0.2,1,0,1.5c-3.1,7.2-13.2,14.8-13.6,15.1C782.7,833.8,782.3,833.9,781.9,833.9z M773.1,816.9
					c0.5,0,0.9,0,1.4,0.1c3.4,0.4,6.1,1.8,7.7,4.1c1.3,1.8,1.9,4,2,6.7c2.6-2.3,6.1-5.7,8.1-9.1c-10.1-3.5-52.1-20.8-52.4-66.4
					c-6.7,8.7-19.7,31.5,1.1,59.5c0.3,0.3,11,11.5,26.9,6C769.8,817.2,771.5,816.9,773.1,816.9z"/>
			</g>
			<g>
				<path fill="#F9CD15" d="M774.3,818.8c-2-0.2-3.9,0.1-5.8,0.8c-4.7,1.6-9,1.8-12.8,1.3l0,0c0,0-9.5,9.4-8.3,22.6
					c0,0,21.5,2.9,34.5-11.5C784,821.8,778.4,819.3,774.3,818.8z"/>
				<path fill="#3C2415" d="M752.2,845.6c-2.9,0-4.8-0.2-5.1-0.3c-0.8-0.1-1.5-0.8-1.6-1.7c-1.2-13.4,7.8-22.9,8.8-24
					c0.4-0.4,1-0.7,1.6-0.6c4,0.5,8,0.1,11.9-1.3c2.4-0.8,4.5-1.1,6.6-0.9l0,0c3.4,0.4,6.1,1.8,7.7,4.1c2,2.7,2.5,6.5,1.5,11.3
					c-0.1,0.3-0.2,0.6-0.4,0.9C773.6,844,759.6,845.6,752.2,845.6z M749.1,841.9c4.9,0.3,20.8,0.4,31.1-10.6c0.6-3.5,0.3-6.2-1-8
					c-1.1-1.5-2.8-2.3-5.2-2.6l0,0c-1.5-0.2-3.1,0.1-5,0.7c-4.2,1.4-8.4,2-12.7,1.5C754.6,825,748.9,832.3,749.1,841.9z"/>
			</g>
			<g>
				<path fill="#F9CD15" d="M739.5,813c0,0-9.4,21.9,7.9,30.6c0,0-2.4-11.5,8.3-22.6C755.7,821,746.3,820.1,739.5,813z"/>
				<path fill="#3C2415" d="M747.4,845.4c-0.3,0-0.6-0.1-0.8-0.2c-18.7-9.4-8.8-32.7-8.7-32.9c0.2-0.6,0.8-1,1.4-1.1
					c0.6-0.1,1.2,0.1,1.6,0.5c6.2,6.6,15,7.4,15,7.4c0.7,0.1,1.3,0.5,1.5,1.2c0.2,0.7,0.1,1.4-0.4,1.9c-9.9,10.2-7.9,20.5-7.9,20.9
					c0.1,0.7-0.1,1.4-0.7,1.8C748.2,845.2,747.8,845.4,747.4,845.4z M740.3,816.2c-1.6,5.2-4.1,17.2,5,23.9c0.1-4.1,1.2-10.9,6.9-18
					C749.2,821.4,744.5,819.7,740.3,816.2z"/>
			</g>
			<g>
				<path fill="#3C2415" d="M896.5,583.9c0,0,5,4.5,7.2,8.3c0,0,15-12.1,20.4-24.1c0.7-1.5-0.8-3-2.3-2.5
					C916.6,567.6,906.7,572.6,896.5,583.9z"/>
			</g>
			<path fill="#3C2415" d="M868.1,699c-1,0-1.8-0.7-1.8-1.7c0-0.4-0.4-8.7,8.8-14.3c0.3-0.2,20.4-11.6,22.8-24
				c0.2-1,1.2-1.6,2.1-1.5c1,0.2,1.6,1.1,1.5,2.1c-2.7,14.1-23.7,26-24.5,26.5c-7.3,4.4-6.9,10.9-6.9,10.9c0.1,1-0.7,1.9-1.7,1.9
				C868.2,699,868.2,699,868.1,699z"/>
			<ellipse fill="#3C2415" cx="850.2" cy="694.7" rx="2.8" ry="5.7"/>
			<path fill="#3C2415" d="M902.4,640c-0.4,4.4-2.9,10.5-12.4,15.7c-1.4,0.8-3.1-0.4-2.8-2c0.7-4.7,2.3-12.8,5.5-17.4
				C895.8,631.9,902.8,634.6,902.4,640z"/>
			<path fill="#3C2415" d="M861.2,665c-0.3,0-0.6-0.1-0.9-0.2c-0.1,0-7.7-4.4-18.4-3.6c-1,0.1-1.9-0.7-2-1.7c-0.1-1,0.7-1.9,1.7-2
				c11.9-0.9,20.2,3.9,20.5,4.1c0.9,0.5,1.2,1.6,0.7,2.5C862.4,664.6,861.8,665,861.2,665z"/>
			<path fill="#3C2415" d="M858.2,671.5c-0.3,0-0.7-0.1-1-0.3l0,0c-0.1,0-5.4-3.3-15.5-3c-1.1,0-1.9-0.8-1.9-1.8
				c0-1,0.8-1.9,1.8-1.9c11.3-0.3,17.3,3.4,17.5,3.5c0.9,0.5,1.1,1.7,0.6,2.5C859.4,671.2,858.8,671.5,858.2,671.5z"/>
			<path fill="#3C2415" d="M855,677.1c-0.2,0-0.4,0-0.7-0.1c-0.1,0-5.4-2.1-12.6-2c-1,0.1-1.8-0.8-1.9-1.8s0.8-1.8,1.8-1.9
				c7.9-0.1,13.7,2.2,14,2.3c0.9,0.4,1.4,1.4,1,2.4C856.4,676.7,855.7,677.1,855,677.1z"/>
			<g>
				<path fill="#F9CD15" d="M933.3,661.2c0,0-6.2-9.4-16.8-14.3c0,0-0.5,37.4-45.4,49.6l-2.5,0.6c0,0-6.8,14.9-26.8,12.9
					c-20,2-26.8-12.9-26.8-12.9l-2.5-0.6c-44.9-12.2-45.4-49.6-45.4-49.6c-10.5,4.9-16.8,14.3-16.8,14.3
					c13.4,29.7-8.3,86.2-8.3,86.2c27.8-3.7,39.2,14.4,39.2,14.4c24.4,25,39.9,7.9,39.9,7.9c9.1-8.8,15.4-9.1,20.8-9.1
					s11.7,0.2,20.8,9.1c0,0,15.5,17.1,39.9-7.9c0,0,11.4-18.1,39.2-14.4C941.6,747.4,919.8,690.8,933.3,661.2z"/>
				<path fill="#3C2415" d="M876.8,777.2c-0.1,0-0.3,0-0.4,0c-9.5-0.2-15-6.1-15.2-6.3c-8.7-8.5-14.7-8.5-19.4-8.5
					c-4.8,0-10.7,0-19.5,8.5c-0.1,0.2-5.6,6.1-15.1,6.2c-0.1,0-0.3,0-0.4,0c-8.7,0-17.8-4.8-26.9-14.2c-0.1-0.1-0.2-0.2-0.2-0.3
					c-0.4-0.7-11.2-17-37.4-13.5c-0.6,0.1-1.3-0.2-1.7-0.7c-0.4-0.5-0.5-1.2-0.3-1.8c0.2-0.6,21.4-56.2,8.4-84.8
					c-0.3-0.6-0.2-1.2,0.1-1.8c0.3-0.4,6.7-9.9,17.5-15c0.6-0.3,1.2-0.2,1.7,0.1c0.5,0.3,0.9,0.9,0.9,1.5c0,1.5,1.1,36.2,44,47.9
					l2.5,0.6c0.5,0.1,1,0.5,1.2,1c0.3,0.6,6.5,13.7,25,11.9c0.1,0,0.2,0,0.4,0c18.4,1.8,24.7-11.3,25-11.9c0.2-0.5,0.7-0.9,1.2-1
					l2.5-0.6c18.1-4.9,31-14.5,38.4-28.5c5.5-10.4,5.7-19.3,5.7-19.4c0-0.6,0.3-1.2,0.9-1.5c0.5-0.3,1.2-0.4,1.7-0.1
					c10.9,5.1,17.3,14.6,17.5,15c0.4,0.5,0.4,1.2,0.1,1.8c-13,28.6,8.2,84.2,8.4,84.8c0.2,0.6,0.1,1.3-0.3,1.8
					c-0.4,0.5-1,0.8-1.7,0.7c-26.2-3.5-37,12.8-37.4,13.5c-0.1,0.1-0.1,0.2-0.2,0.3C894.6,772.4,885.5,777.2,876.8,777.2z
					 M841.7,758.7c6.4,0,12.9,0.7,22.1,9.6c0.1,0.1,4.8,5.1,12.7,5.2c7.7,0.2,16-4.2,24.5-12.9c1.3-2,12.5-17.5,37.9-15.4
					c-4.2-11.8-18.9-57.1-7.7-83.8c-1.6-2.1-6.2-7.8-13.1-11.7c-1.2,9.2-8.1,38.1-46.5,48.5l-1.8,0.4c-1.9,3.2-9.9,14.9-28.1,13.2
					c-18.2,1.7-26.2-10-28.1-13.2l-1.7-0.4c-38.4-10.4-45.3-39.3-46.5-48.5c-6.9,3.9-11.6,9.6-13.1,11.7c11.2,26.7-3.5,72-7.7,83.8
					c25.4-2.2,36.6,13.4,37.9,15.4c8.4,8.6,16.5,12.9,24.2,12.9c0.1,0,0.2,0,0.3,0c7.9-0.1,12.6-5.1,12.7-5.1
					C828.8,759.5,835.3,758.7,841.7,758.7z"/>
			</g>
			<g>
				<path fill="#585044" d="M941.6,747.4c-27.8-3.7-39.2,14.4-39.2,14.4c-24.4,25-39.9,7.9-39.9,7.9c-9.1-8.8-15.4-9.1-20.8-9.1
					s-11.7,0.2-20.8,9.1c0,0-15.5,17.1-39.9-7.9c0,0-11.4-18.1-39.2-14.4c0,0-9.3,75.5,99.9,76.9
					C950.9,822.9,941.6,747.4,941.6,747.4z"/>
				<path fill="#3C2415" d="M841.7,826.1c-39.6-0.5-68.4-10.7-85.5-30.3c-19.3-22-16.4-47.6-16.2-48.7c0.1-0.8,0.7-1.5,1.6-1.6
					c27.5-3.7,39.5,13,40.9,15c8.5,8.7,16.8,13.1,24.5,12.9c8-0.1,12.5-5.1,12.6-5.1c9.2-8.9,15.7-9.7,22.2-9.7s12.9,0.7,22.1,9.6
					c0.1,0.1,4.8,5.1,12.7,5.2c7.7,0.2,16-4.2,24.5-12.9c1.4-2,13.4-18.7,40.9-15c0.8,0.1,1.5,0.8,1.6,1.6c0.1,1.1,3,26.7-16.2,48.7
					C910.1,815.5,881.3,825.6,841.7,826.1z M743.6,749c-0.3,5.6-0.2,26.6,15.5,44.5c16.4,18.7,44.2,28.5,82.7,29
					c38.4-0.5,66.3-10.2,82.6-29c15.7-17.9,15.8-38.9,15.5-44.5c-25.3-2.7-35.8,13.5-35.9,13.7c-0.1,0.1-0.1,0.2-0.2,0.3
					c-9.3,9.5-18.5,14.4-27.3,14.2c-9.5-0.2-15-6.1-15.2-6.3c-8.7-8.5-14.7-8.5-19.4-8.5c-4.8,0-10.7,0-19.5,8.5
					c-0.1,0.2-5.6,6.1-15.1,6.2c-0.1,0-0.3,0-0.4,0c-8.7,0-17.8-4.8-26.9-14.2c-0.1-0.1-0.2-0.2-0.2-0.3
					C779.1,762,768.7,746.3,743.6,749z"/>
			</g>
			<g>
				<path fill="#F9CD15" d="M933.3,661.2c0,0,46.8,38.4,37.1,85.7c0,0-6,18.1-28.7,0.5C941.6,747.4,919.5,690.5,933.3,661.2z"/>
				<path fill="#3C2415" d="M958.9,756.9c-5.3,0-11.5-2.7-18.4-8.1c-0.3-0.2-0.5-0.5-0.6-0.8c-0.9-2.4-22.3-58-8.3-87.6
					c0.2-0.5,0.7-0.9,1.3-1c0.6-0.1,1.1,0,1.6,0.4c0.5,0.4,47.6,39.6,37.7,87.5c-0.1,0.5-2.4,7-9.1,9.1
					C961.7,756.7,960.3,756.9,958.9,756.9z M943.1,746.2c7.5,5.7,14,8,18.8,6.6c4.9-1.5,6.7-6.5,6.7-6.5
					c8.2-40.1-26.2-74.3-34.7-82.1C923.3,691.7,941.1,740.9,943.1,746.2z"/>
			</g>
			<g>
				<path fill="#585044" d="M941.6,747.4c0,0,29.8,28.7,2.3,65.6c0,0-11.6,12.6-29,6.6c-1.9-0.6-3.8-1-5.8-0.8
					c-4.1,0.5-9.7,2.9-7.7,13.2c0,0-10.1-7.6-13-14.4C888.5,817.7,944.8,802.1,941.6,747.4z"/>
				<path fill="#3C2415" d="M901.5,833.9c-0.4,0-0.8-0.1-1.1-0.4c-0.4-0.3-10.5-8-13.6-15.1c-0.2-0.5-0.2-1,0-1.5
					c0.2-0.5,0.7-0.8,1.2-1c2.2-0.6,54.9-15.9,51.8-68.4c0-0.8,0.4-1.5,1.1-1.8c0.7-0.3,1.5-0.2,2,0.3c0.3,0.3,30.6,30.3,2.5,68
					c-0.6,0.7-12.8,13.6-31,7.3c-1.9-0.6-3.5-0.9-5-0.7c-2.4,0.3-4.1,1.2-5.2,2.6c-1.3,1.8-1.6,4.7-0.9,8.5c0.2,0.7-0.2,1.5-0.8,1.9
					C902.2,833.8,901.8,833.9,901.5,833.9z M891.1,818.7c2,3.3,5.5,6.8,8.1,9.1c0-2.7,0.7-4.9,2-6.7c1.7-2.3,4.3-3.7,7.7-4.1
					c2-0.2,4.2,0,6.6,0.9c16,5.5,26.6-5.7,27.1-6.2c10.9-14.6,13.9-29.7,8.7-44.8c-2.2-6.4-5.4-11.3-7.8-14.5
					C943.2,797.9,901.2,815.3,891.1,818.7z"/>
			</g>
			<g>
				<path fill="#F9CD15" d="M909.2,818.8c2-0.2,3.9,0.1,5.8,0.8c4.7,1.6,9,1.8,12.8,1.3l0,0c0,0,9.5,9.4,8.3,22.6
					c0,0-21.5,2.9-34.5-11.5C899.4,821.8,905.1,819.3,909.2,818.8z"/>
				<path fill="#3C2415" d="M931.2,845.6c-7.4,0-21.4-1.6-31.1-12.3c-0.2-0.2-0.4-0.5-0.4-0.9c-1-4.8-0.5-8.6,1.5-11.3
					c1.7-2.3,4.3-3.7,7.7-4.1l0,0c2-0.2,4.2,0,6.6,0.9c4,1.4,8,1.8,11.9,1.3c0.6-0.1,1.3,0.2,1.7,0.7c1.2,1.3,9.9,10.7,8.7,23.9
					c-0.1,0.9-0.7,1.5-1.6,1.7C936,845.4,934.1,845.6,931.2,845.6z M903.2,831.2c10.3,11,26.2,10.9,31.1,10.6
					c0.2-9.6-5.5-16.9-7.3-19c-4.2,0.4-8.5-0.1-12.6-1.5c-1.9-0.6-3.5-0.9-5-0.7l0,0c-2.4,0.3-4.1,1.2-5.2,2.6
					C902.9,825,902.6,827.7,903.2,831.2z M909.2,818.8L909.2,818.8L909.2,818.8z"/>
			</g>
			<g>
				<path fill="#F9CD15" d="M943.9,813c0,0,9.4,21.9-7.9,30.6c0,0,2.4-11.5-8.3-22.6C927.7,821,937.1,820.1,943.9,813z"/>
				<path fill="#3C2415" d="M936,845.4c-0.4,0-0.8-0.1-1.1-0.4c-0.6-0.4-0.8-1.1-0.7-1.8c0.1-0.4,2-10.7-7.9-20.9
					c-0.5-0.5-0.6-1.2-0.4-1.9c0.2-0.7,0.8-1.1,1.5-1.2c0.1,0,8.9-0.9,15-7.4c0.4-0.4,1-0.6,1.6-0.5c0.6,0.1,1.1,0.5,1.4,1.1
					c0.1,0.2,9.9,23.6-8.7,32.9C936.6,845.3,936.3,845.4,936,845.4z M931.2,822.2c5.7,7,6.8,13.9,6.9,18c9.1-6.8,6.7-18.7,5-23.9
					C938.9,819.7,934.3,821.4,931.2,822.2z"/>
			</g>
		</g>
		<g>
			<g>
				<path fill="#F8AFB6" d="M1313.1,700.8c0,0-25.4-122.1-118.1-125.1c-92.7,3-118.1,125.1-118.1,125.1
					c-14.3,81.4,36,114.4,36,114.4c30.7,26.1,82.1,23.1,82.1,23.1s51.4,3,82.1-23.1C1277,815.2,1327.3,782.2,1313.1,700.8z"/>
				<path fill="#3C2415" d="M1200.4,840.3c-3.1,0-5.1-0.1-5.5-0.1c-1.9,0.1-52.2,2.7-83.2-23.6c-0.3-0.2-12.9-8.6-23.8-27.1
					c-10-17.1-20.3-46.4-12.9-88.9c0.3-1.3,26.8-123.6,119.8-126.7c93.1,3,119.7,125.4,119.9,126.6c0,0,0,0,0,0.1
					c7.5,42.6-2.9,71.9-12.9,88.9c-10.9,18.6-23.4,26.9-23.9,27.3C1252.9,838.2,1214.6,840.3,1200.4,840.3z M1194.9,577.5
					c-90.1,2.9-116,122.5-116.2,123.7c-7.3,41.3,2.7,69.7,12.3,86.2c10.4,17.9,22.8,26.2,22.9,26.2c30,25.5,80.5,22.9,81,22.8
					c0.7,0,51.2,2.6,81-22.7c0.7-0.5,49.3-33.5,35.4-112.6C1310.8,698.9,1284.6,580.4,1194.9,577.5z"/>
			</g>
			<g>
				<path fill="#F8AFB6" d="M1263.9,824.2c0,0,97.1,53.7,27.3-22.5C1291.2,801.7,1282.7,813.4,1263.9,824.2z"/>
				<path fill="#3C2415" d="M1310.8,844.4c-4.4,0-11.7-1.7-24.2-7.1c-12.1-5.2-23.5-11.5-23.6-11.5c-0.6-0.3-0.9-0.9-0.9-1.6
					c0-0.7,0.4-1.3,0.9-1.6c18.2-10.4,26.7-21.8,26.8-22c0.3-0.4,0.8-0.7,1.4-0.8c0.5,0,1.1,0.2,1.5,0.6
					c27.3,29.8,27.4,37.8,24.5,41.5C1316.1,843.2,1314.5,844.4,1310.8,844.4z M1267.6,824.1c20.4,11,43.3,19.8,46.6,15.6
					c1-1.3,2.2-7.5-22.9-35.2C1288.4,808,1280.8,816.1,1267.6,824.1z"/>
			</g>
			<g>
				<path fill="#F8AFB6" d="M1264.6,607.2c0,0,42.1,14,92.7,8.7c0,0,9.7-1.6,8.3,6.3c-0.5,2.5-1.8,4.7-3.7,6.5
					c-4.1,3.9-13.9,10.9-29.4,10.5c0,0-17.3-2.4-54.2-16C1278.2,623.2,1271.1,613.3,1264.6,607.2z"/>
				<path fill="#3C2415" d="M1333.6,641.1c-0.4,0-0.9,0-1.3,0c-0.9-0.1-18.1-2.6-54.8-16.1c-0.3-0.1-0.6-0.4-0.9-0.6
					c-0.1-0.1-7.1-9.9-13.4-15.8c-0.6-0.6-0.8-1.5-0.3-2.3c0.4-0.7,1.3-1.1,2.1-0.8c0.4,0.1,42.4,13.8,91.9,8.6
					c0.5-0.1,5.8-0.9,8.7,2.1c1,1.1,2.2,3,1.5,6.4c-0.5,2.8-2,5.4-4.3,7.5C1358.6,634.2,1348.9,641.1,1333.6,641.1z M1279.4,621.7
					c35.9,13.2,53.1,15.7,53.3,15.7c14.5,0.4,23.8-6.1,27.9-10c1.7-1.6,2.8-3.5,3.2-5.5c0.4-2.2-0.3-2.9-0.5-3.1
					c-1.3-1.4-4.6-1.2-5.6-1c-38.8,4.1-73.1-3.2-87-6.9C1274.7,615.5,1278.3,620.2,1279.4,621.7z"/>
			</g>
			<g>
				<path fill="#F8AFB6" d="M1332.4,639.2l28.7,8.6c0,0,27.9,8.1-19.8,16.6c0,0-23.3-7.4-52.6-25.2c0,0-7-11.4-10.5-16
					C1278.2,623.2,1316.6,637.5,1332.4,639.2z"/>
				<path fill="#3C2415" d="M1341.3,666.3c-0.2,0-0.4,0-0.6-0.1c-0.2-0.1-23.9-7.7-53-25.4c-0.2-0.2-0.5-0.4-0.6-0.6
					c-0.1-0.1-6.9-11.4-10.4-15.9c-0.5-0.6-0.5-1.5,0-2.2c0.5-0.7,1.3-0.9,2.1-0.6c0.4,0.1,38.3,14.2,53.7,15.9c0.1,0,0.2,0,0.3,0.1
					l28.7,8.6c1.6,0.5,9.7,3.1,9.4,7.8c-0.2,3.3-3.7,7.7-29.4,12.3C1341.5,666.3,1341.4,666.3,1341.3,666.3z M1290,637.9
					c26.5,16.1,48.2,23.6,51.4,24.7c25-4.5,25.9-8.4,25.9-8.8c0.1-1.1-3.2-3.1-6.8-4.1L1332,641c-12.5-1.4-37.8-10.1-49-14.1
					C1285.9,631.3,1289.1,636.5,1290,637.9z"/>
			</g>
			<g>
				<path fill="#F8AFB6" d="M1288.7,639.3c0,0,35.7,20.3,52.6,25.2c0,0,17.8,6.2,11.3,13.6c0,0-11.7,18.1-50.4-11
					C1302.2,667,1293.2,645,1288.7,639.3z"/>
				<path fill="#3C2415" d="M1339.1,685.5c-10.3,0-23-5.7-38-17c-0.3-0.2-0.5-0.5-0.6-0.8c-0.1-0.2-9-21.9-13.3-27.3
					c-0.5-0.7-0.5-1.7,0.1-2.3c0.6-0.7,1.5-0.8,2.3-0.4c0.4,0.2,35.7,20.2,52.2,25.1c1.3,0.5,12.3,4.4,13.8,10.5
					c0.4,1.4,0.4,3.7-1.6,6c-0.6,0.8-3.6,4.7-10.5,5.9C1342.1,685.3,1340.6,685.5,1339.1,685.5z M1303.7,665.9
					c20.1,15.1,32.4,16.8,39.2,15.6c5.8-1,8.1-4.4,8.2-4.4c0.1-0.1,0.1-0.1,0.2-0.2c1.1-1.3,1-2.2,0.9-2.7
					c-0.8-3.2-7.4-6.5-11.4-7.9c-12.8-3.7-35.9-16-46.9-22C1297.9,652,1302.7,663.4,1303.7,665.9z"/>
			</g>
			<path fill="#3C2415" d="M1196.1,641.1c-0.7,0-1.1,0-1.2,0c-1-0.1-1.8-0.9-1.7-1.9c0.1-1,0.9-1.8,1.9-1.7c0.1,0,12.4,0.6,17.8-5.4
				c0.7-0.8,1.8-0.8,2.6-0.1c0.8,0.7,0.8,1.8,0.1,2.6C1210.1,640.6,1199.7,641.1,1196.1,641.1z"/>
			<path fill="#3C2415" d="M1196.8,649.2c-1.2,0-2-0.1-2.1-0.1c-1-0.1-1.7-1.1-1.6-2.1c0.1-1,1.1-1.7,2.1-1.6l0,0
				c0,0,4.3,0.5,8.7-1.3c0.9-0.4,2,0,2.4,1c0.4,0.9,0,2-1,2.4C1202,649,1198.8,649.2,1196.8,649.2z"/>
			<ellipse fill="#3C2415" cx="1219.5" cy="615.8" rx="5.3" ry="10.7"/>
			<circle fill="#FFFFFF" cx="1218.9" cy="610.8" r="2.4"/>
			<g>
				<path fill="#F8AFB6" d="M1126.1,824.2c0,0-97.1,53.7-27.3-22.5C1098.7,801.7,1107.2,813.4,1126.1,824.2z"/>
				<path fill="#3C2415" d="M1079.2,844.4c-3.7,0-5.3-1.2-6.3-2.4c-2.9-3.7-2.7-11.7,24.5-41.5c0.4-0.4,0.9-0.6,1.5-0.6
					c0.5,0,1.1,0.3,1.4,0.8c0.1,0.1,8.5,11.6,26.8,22c0.6,0.3,0.9,0.9,0.9,1.6c0,0.7-0.4,1.3-0.9,1.6c-0.1,0.1-11.5,6.4-23.6,11.5
					C1090.9,842.7,1083.6,844.4,1079.2,844.4z M1098.6,804.5c-25.1,27.7-23.9,33.9-22.9,35.2c3.3,4.2,26.2-4.6,46.6-15.6
					C1109.2,816.1,1101.6,808,1098.6,804.5z"/>
			</g>
			<g>
				<path fill="#F8AFB6" d="M1125.4,607.2c0,0-42.1,14-92.7,8.7c0,0-9.7-1.6-8.3,6.3c0.5,2.5,1.8,4.7,3.7,6.5
					c4.1,3.9,13.9,10.9,29.4,10.5c0,0,17.3-2.4,54.2-16C1111.7,623.2,1118.9,613.3,1125.4,607.2z"/>
				<path fill="#3C2415" d="M1056.5,641.1c-15.5,0-25.1-6.8-29.6-11c-2.3-2.1-3.7-4.7-4.3-7.5c-0.6-3.4,0.5-5.3,1.5-6.4
					c2.9-3,8.2-2.2,8.8-2.1c49.5,5.2,91.4-8.5,91.8-8.7c0.8-0.3,1.7,0.1,2.1,0.8c0.4,0.7,0.3,1.7-0.3,2.3
					c-6.3,5.9-13.3,15.7-13.4,15.8c-0.2,0.3-0.5,0.5-0.9,0.6c-36.7,13.6-53.8,16-54.6,16.1C1057.4,641.1,1056.9,641.1,1056.5,641.1z
					 M1030.8,617.6c-1.4,0-3.1,0.2-4,1.1c-0.2,0.2-0.9,1-0.5,3.1c0.4,2,1.5,3.9,3.2,5.5c4.2,3.9,13.4,10.4,28.1,10
					c0,0,17.2-2.5,53.1-15.7c1.1-1.5,4.7-6.3,8.8-10.9c-13.9,3.7-48.1,11-86.9,6.9C1032.1,617.7,1031.5,617.6,1030.8,617.6z"/>
			</g>
			<g>
				<path fill="#F8AFB6" d="M1057.6,639.2l-28.7,8.6c0,0-27.9,8.1,19.8,16.6c0,0,23.3-7.4,52.6-25.2c0,0,7-11.4,10.5-16
					C1111.7,623.2,1073.4,637.5,1057.6,639.2z"/>
				<path fill="#3C2415" d="M1048.6,666.3c-0.1,0-0.2,0-0.3,0c-25.7-4.6-29.2-9-29.4-12.3c-0.3-4.8,7.8-7.4,9.4-7.8l28.7-8.6
					c0.1,0,0.2-0.1,0.3-0.1c15.4-1.7,53.4-15.8,53.7-15.9c0.8-0.3,1.6,0,2.1,0.6c0.5,0.7,0.5,1.5,0,2.2
					c-3.4,4.5-10.3,15.8-10.4,15.9c-0.2,0.3-0.4,0.5-0.6,0.6c-29.1,17.8-52.8,25.3-53,25.4C1049,666.3,1048.8,666.3,1048.6,666.3z
					 M1057.9,641l-28.5,8.6c-3.6,1-6.9,3.1-6.8,4.1c0,0.4,1,4.3,25.9,8.8c3.3-1.1,25-8.6,51.4-24.7c0.9-1.4,4.1-6.6,7-11
					C1095.8,630.9,1070.4,639.6,1057.9,641z"/>
			</g>
			<g>
				<path fill="#F8AFB6" d="M1101.3,639.3c0,0-35.7,20.3-52.6,25.2c0,0-17.8,6.2-11.3,13.6c0,0,11.7,18.1,50.4-11
					C1087.7,667,1096.8,645,1101.3,639.3z"/>
				<path fill="#3C2415" d="M1050.8,685.5c-1.5,0-3-0.1-4.4-0.4c-6.9-1.2-9.9-5.1-10.5-5.9c-2-2.3-2-4.6-1.6-6
					c1.6-6.1,12.5-10,13.8-10.4c16.6-4.8,52-24.9,52.3-25.1c0.8-0.4,1.7-0.3,2.3,0.4c0.6,0.7,0.6,1.6,0.1,2.3
					c-4.3,5.4-13.2,27.1-13.3,27.3c-0.1,0.3-0.3,0.6-0.6,0.8C1073.9,679.8,1061.1,685.5,1050.8,685.5z M1096.1,644.2
					c-11,6-34.1,18.3-47,22c-3.9,1.4-10.5,4.7-11.3,7.9c-0.1,0.6-0.2,1.5,0.9,2.7c0.1,0.1,0.1,0.1,0.2,0.2c0.1,0.1,2.4,3.4,8.3,4.4
					c6.8,1.1,19-0.7,39-15.6C1087.3,663.4,1092,652,1096.1,644.2z"/>
			</g>
			<path fill="#3C2415" d="M1193.9,641.1c-3.6,0-14-0.5-19.5-6.7c-0.7-0.8-0.6-1.9,0.1-2.6c0.7-0.7,1.9-0.6,2.6,0.1
				c5.3,6,17.7,5.4,17.8,5.4c1-0.1,1.9,0.7,1.9,1.7c0,1-0.7,1.9-1.7,1.9C1195,641.1,1194.5,641.1,1193.9,641.1z"/>
			<path fill="#3C2415" d="M1193.1,649.2c-2,0-5.2-0.3-8.5-1.7c-0.9-0.4-1.4-1.5-1-2.4c0.4-0.9,1.5-1.4,2.4-1
				c4.4,1.9,8.6,1.3,8.6,1.3c1-0.1,1.9,0.6,2.1,1.6c0.1,1-0.6,1.9-1.6,2.1C1195.1,649.1,1194.4,649.2,1193.1,649.2z"/>
			<ellipse fill="#3C2415" cx="1170.5" cy="615.8" rx="5.3" ry="10.7"/>
			<circle fill="#FFFFFF" cx="1171.1" cy="610.8" r="2.4"/>
			<g>
				<path fill="#CB9783" d="M1243.5,769.7c-7.1,37.1-34,37.8-48.5,37.8s-41.5-0.7-48.5-37.8c0,0-14.3,71.8,48.5,74.1
					C1257.8,841.5,1243.5,769.7,1243.5,769.7z"/>
				<path fill="#3C2415" d="M1195,845.6c-17.6-0.6-30.9-6.6-39.7-17.7c-17.6-22.3-11-57.1-10.7-58.6c0.2-0.9,0.9-1.5,1.8-1.5
					c0,0,0,0,0,0c0.9,0,1.6,0.6,1.8,1.5c6.9,36.3,33.8,36.3,46.7,36.3s39.8,0,46.7-36.3c0.2-0.9,0.9-1.5,1.8-1.5
					c0.9,0.1,1.6,0.6,1.8,1.5c0.3,1.5,7,36.3-10.7,58.6C1225.8,839,1212.5,845,1195,845.6z M1147.1,779.5
					c-0.8,11.8-0.1,32,11.1,46.1c8.1,10.2,20.5,15.7,36.8,16.3c16.2-0.6,28.6-6.1,36.7-16.3c11.2-14.1,11.9-34.3,11.1-46.1
					c-10.2,29.7-36.2,29.7-47.9,29.7C1183.3,809.3,1157.3,809.3,1147.1,779.5z"/>
			</g>
			<g>
				<path fill="#FFEBA8" d="M1195,719.9c0,0-36.9,1.1-48.5,49.8c0,0,1.1,37.8,48.5,37.8c47.4,0,48.5-37.8,48.5-37.8
					C1231.9,721,1195,719.9,1195,719.9z"/>
				<path fill="#3C2415" d="M1195,809.3c-48.7,0-50.4-39.2-50.4-39.6c0-0.2,0-0.3,0.1-0.5c11.8-49.5,49.9-51.2,50.3-51.2
					c0,0,0.1,0,0.1,0c0.4,0,38.4,1.7,50.3,51.2c0,0.2,0.1,0.3,0.1,0.5C1245.3,770.1,1243.6,809.3,1195,809.3z M1148.3,769.9
					c0.2,3.4,3.1,35.8,46.7,35.8c43.7,0,46.5-32.4,46.7-35.8c-11.1-46-44.6-48-46.7-48.1C1192.9,721.8,1159.4,723.9,1148.3,769.9z"
					/>
			</g>
			<path fill="#3C2415" d="M1238.3,749c-2.9,0-4.5-1-5.5-2.1c-2.7-2.9-4.3-9.6,11.9-34.3c8.6-13.1,18.4-25.2,18.5-25.3
				c0.6-0.8,1.8-0.9,2.6-0.3c0.8,0.6,0.9,1.8,0.3,2.6c-15.7,19.4-35.6,49.3-30.5,54.8c1.8,2,10.9,3.6,54.6-25.4
				c0.8-0.6,2-0.3,2.5,0.5c0.6,0.8,0.3,2-0.5,2.5C1259.7,743.5,1245.2,749,1238.3,749z"/>
			<path fill="#3C2415" d="M1151.7,749c-7,0-21.5-5.5-53.8-26.9c-0.8-0.6-1.1-1.7-0.5-2.5c0.6-0.8,1.7-1.1,2.5-0.5
				c43.8,29,52.7,27.4,54.6,25.4c3-3.3-4.4-22.5-30.5-54.8c-0.6-0.8-0.5-1.9,0.3-2.6c0.8-0.6,1.9-0.5,2.6,0.3
				c0.1,0.1,9.9,12.2,18.5,25.3c16.2,24.6,14.6,31.4,11.9,34.3C1156.2,748.1,1154.6,749,1151.7,749z"/>
		</g>
	</g>
</g>
</svg>
